<svg width="29" height="29" viewBox="0 0 29 29" fill="none" xmlns="http://www.w3.org/2000/svg">
<path d="M29 14.5C29 15.4521 28.9071 16.395 28.7214 17.3288C28.5363 18.2604 28.2599 19.1715 27.8962 20.0489C27.533 20.9265 27.0842 21.7662 26.5563 22.5558C26.0288 23.3456 25.4248 24.0816 24.753 24.753C24.0816 25.4248 23.3456 26.0288 22.5558 26.5563C21.7662 27.0842 20.9265 27.533 20.0489 27.8962C19.1715 28.2599 18.2604 28.5363 17.3288 28.7214C16.3973 28.9069 15.4498 29.0002 14.5 29C13.5479 29 12.605 28.9071 11.6712 28.7214C10.7396 28.5363 9.8285 28.2599 8.95108 27.8962C8.0735 27.533 7.23384 27.0842 6.44424 26.5563C5.65439 26.0288 4.91841 25.4248 4.24696 24.753C3.57519 24.0816 2.97119 23.3456 2.44369 22.5558C1.91583 21.7662 1.46701 20.9265 1.10375 20.0489C0.740068 19.1715 0.463687 18.2604 0.278612 17.3288C0.093095 16.3973 -0.000226223 15.4498 4.11796e-07 14.5C4.11796e-07 13.5479 0.0928646 12.605 0.278612 11.6712C0.463687 10.7396 0.740067 9.8285 1.10375 8.95108C1.46701 8.0735 1.91583 7.23384 2.44369 6.44424C2.97119 5.65439 3.57519 4.91841 4.24696 4.24696C4.9184 3.57519 5.65438 2.97119 6.44422 2.44369C7.23383 1.91583 8.0735 1.46701 8.95108 1.10375C9.8285 0.740067 10.7396 0.463687 11.6712 0.278612C12.6027 0.0930971 13.5502 -0.000224169 14.5 4.04347e-07C15.4521 4.04347e-07 16.395 0.0928646 17.3288 0.278612C18.2604 0.463687 19.1715 0.740067 20.0489 1.10375C20.9265 1.46701 21.7662 1.91583 22.5558 2.44369C23.3456 2.97119 24.0816 3.57519 24.753 4.24696C25.4248 4.9184 26.0288 5.65438 26.5563 6.44422C27.0842 7.23382 27.533 8.0735 27.8962 8.95108C28.2599 9.8285 28.5363 10.7396 28.7214 11.6712C28.9069 12.6027 29.0002 13.5502 29 14.5Z" fill="#45A834"/>
<path d="M22.4611 11.7609C23.2371 10.9845 23.2369 9.7261 22.4605 8.94992C21.6842 8.17393 20.4256 8.17413 19.6496 8.95071L12.7703 15.833L9.3362 12.3989C8.56002 11.6227 7.30143 11.6227 6.52525 12.3989C5.74907 13.1751 5.74907 14.4337 6.52525 15.2099L11.3652 20.0498C11.5498 20.2344 11.769 20.3809 12.0102 20.4808C12.2514 20.5807 12.5099 20.6321 12.771 20.632C13.032 20.632 13.2906 20.5805 13.5317 20.4806C13.7729 20.3806 13.992 20.2341 14.1766 20.0494L22.4611 11.7609Z" fill="#F2F2F2"/>
</svg>
