<svg width="64" height="64" viewBox="0 0 64 64" fill="none" xmlns="http://www.w3.org/2000/svg">
<path d="M32 38C35.3137 38 38 35.3137 38 32C38 28.6863 35.3137 26 32 26C28.6863 26 26 28.6863 26 32C26 35.3137 28.6863 38 32 38Z" fill="#6C646F"/>
<path d="M52.834 37.9915C56.5943 37.9915 59.6425 34.9432 59.6425 31.183C59.6425 27.4227 56.5943 24.3745 52.834 24.3745C49.0738 24.3745 46.0255 27.4227 46.0255 31.183C46.0255 34.9432 49.0738 37.9915 52.834 37.9915Z" fill="#4B5BA2"/>
<path d="M14.5021 37.9915C17.8488 37.9915 20.5617 35.309 20.5617 32C20.5617 28.691 17.8488 26.0085 14.5021 26.0085C11.1555 26.0085 8.44257 28.691 8.44257 32C8.44257 35.309 11.1555 37.9915 14.5021 37.9915Z" fill="#6C646F"/>
</svg>
