<svg width="30" height="30" viewBox="0 0 30 30" fill="none" xmlns="http://www.w3.org/2000/svg">
<path d="M15 18.7188C14.8333 18.7188 14.6771 18.6929 14.5312 18.6412C14.3854 18.5896 14.25 18.5008 14.125 18.375L8.375 12.625C8.14583 12.3958 8.03125 12.1042 8.03125 11.75C8.03125 11.3958 8.14583 11.1042 8.375 10.875C8.60417 10.6458 8.89583 10.5312 9.25 10.5312C9.60417 10.5312 9.89583 10.6458 10.125 10.875L15 15.75L19.875 10.875C20.1042 10.6458 20.3958 10.5312 20.75 10.5312C21.1042 10.5312 21.3958 10.6458 21.625 10.875C21.8542 11.1042 21.9687 11.3958 21.9687 11.75C21.9687 12.1042 21.8542 12.3958 21.625 12.625L15.875 18.375C15.75 18.5 15.6146 18.5887 15.4687 18.6412C15.3229 18.6937 15.1667 18.7196 15 18.7188Z" fill="#4B5BA2"/>
</svg>
