<svg width="22" height="24" viewBox="0 0 22 24" fill="none" xmlns="http://www.w3.org/2000/svg">
<path d="M21.3125 6.21658C21.3132 5.6565 21.1609 5.10812 20.8739 4.63736C20.5869 4.1666 20.1773 3.79352 19.6945 3.56297C19.2116 3.33242 18.6761 3.25422 18.1522 3.33777C17.6283 3.42132 17.1384 3.66307 16.7414 4.03395C16.5265 4.23438 16.3423 4.46883 16.1953 4.72894V4.73167C16.1721 4.77255 16.1502 4.81434 16.1287 4.85613L16.1184 4.87839C16.1003 4.91427 16.0836 4.95061 16.0673 4.9874C16.0621 4.99876 16.0574 5.01012 16.0527 5.02147C16.0385 5.05463 16.0247 5.08824 16.0118 5.12231C16.0062 5.13639 16.0011 5.15048 15.9959 5.16456C15.9843 5.19635 15.9732 5.22815 15.9624 5.2604L15.9469 5.30855C15.9375 5.33944 15.9285 5.37078 15.9199 5.40213C15.9147 5.41984 15.91 5.4371 15.9057 5.45482C15.8975 5.48525 15.8907 5.51614 15.8838 5.54567C15.8795 5.56429 15.8752 5.58291 15.8713 5.60154C15.8653 5.63243 15.8597 5.66377 15.8546 5.69239C15.8511 5.71146 15.8477 5.73054 15.8447 5.74962C15.84 5.78142 15.8361 5.81367 15.8322 5.84592C15.8301 5.86454 15.8275 5.88317 15.8253 5.90224C15.8219 5.93722 15.8198 5.9722 15.8172 6.00763C15.8172 6.02398 15.8146 6.04033 15.8137 6.05669C15.8112 6.10847 15.8094 6.16025 15.8094 6.21295C15.8094 6.25837 15.8094 6.30379 15.8129 6.34649V6.37556C15.8152 6.41826 15.8182 6.46096 15.8219 6.50366L15.8245 6.52546C15.8284 6.56407 15.8327 6.60223 15.8382 6.63993C15.8382 6.64765 15.8382 6.65583 15.8412 6.66355C15.8473 6.70489 15.8546 6.74577 15.8623 6.78665C15.8623 6.79665 15.8662 6.80618 15.8679 6.81618C15.8756 6.85524 15.8842 6.89431 15.8937 6.93292V6.94155C15.9036 6.98198 15.9143 7.02149 15.9259 7.06101L15.9349 7.0919C15.9465 7.13051 15.9586 7.16822 15.9714 7.20592C15.974 7.21409 15.977 7.22227 15.98 7.23045C15.9916 7.2627 16.0037 7.29495 16.0161 7.32675C16.0196 7.33628 16.023 7.34537 16.0269 7.35445C16.0415 7.39034 16.0565 7.42622 16.0724 7.46166L16.0866 7.49209C16.1016 7.52389 16.1167 7.55568 16.1326 7.58703C16.3569 8.02769 16.6844 8.4001 17.0839 8.66857C17.1888 8.73939 17.2982 8.80238 17.4113 8.85708L17.4281 8.86526C17.5043 8.9016 17.5821 8.9343 17.6614 8.96338L17.7022 8.97791L17.7667 8.99926C17.786 9.00562 17.8053 9.01107 17.8251 9.01698L17.9076 9.03969L17.9819 9.05786L18.0314 9.06831L18.11 9.0833L18.1504 9.09011C18.1891 9.09601 18.2282 9.10147 18.2673 9.10601L18.3003 9.10919C18.3317 9.11191 18.3635 9.11464 18.3953 9.11646L18.4323 9.11873C18.4752 9.11873 18.5156 9.12236 18.5577 9.12236C18.6076 9.12236 18.6566 9.12236 18.7055 9.11782L18.7519 9.11418C18.7855 9.11146 18.8186 9.10919 18.8516 9.10555L18.9053 9.09829C18.9354 9.0942 18.9659 9.09011 18.996 9.08511L19.0502 9.07467C19.0794 9.06921 19.109 9.06331 19.1361 9.05695L19.1889 9.04378C19.2182 9.03651 19.2474 9.02924 19.2749 9.02061C19.2916 9.01607 19.308 9.01107 19.3247 9.00562C19.3544 8.99654 19.384 8.987 19.4132 8.977L19.4588 8.96065C19.4893 8.94929 19.5194 8.93748 19.5494 8.92522L19.5894 8.90841C19.6216 8.89479 19.6534 8.88025 19.6848 8.86526L19.717 8.84982C19.7518 8.83255 19.7862 8.81484 19.8202 8.79576L19.8412 8.78486C19.8807 8.76215 19.9203 8.73943 19.9589 8.71445H19.9615C20.2096 8.56032 20.4334 8.3663 20.625 8.13938C21.0686 7.60876 21.3132 6.92478 21.3125 6.21658Z" fill="#4B5BA2"/>
<path d="M15.9577 9.59977L11.422 13.3291C11.3013 13.4282 11.1528 13.4821 11 13.4821C10.8472 13.4821 10.6987 13.4282 10.578 13.3291L4.39055 8.24159C4.31785 8.18355 4.25679 8.11082 4.21091 8.02762C4.16503 7.94442 4.13525 7.85241 4.1233 7.75694C4.11135 7.66147 4.11747 7.56444 4.1413 7.47149C4.16513 7.37854 4.2062 7.29152 4.26211 7.21549C4.31803 7.13947 4.38768 7.07594 4.46702 7.02862C4.54636 6.9813 4.63381 6.95111 4.72428 6.93983C4.81475 6.92854 4.90644 6.93637 4.99402 6.96287C5.0816 6.98936 5.16333 7.034 5.23445 7.09417L11 11.8346L15.0485 8.50595C14.6568 7.83602 14.4443 7.06631 14.4336 6.2788C14.4229 5.49129 14.6145 4.71547 14.9879 4.03395H3.78125C3.14328 4.03467 2.53164 4.30291 2.08053 4.77979C1.62942 5.25668 1.37568 5.90328 1.375 6.5777V17.4795C1.37568 18.1539 1.62942 18.8005 2.08053 19.2774C2.53164 19.7543 3.14328 20.0225 3.78125 20.0232H18.2188C18.8567 20.0225 19.4684 19.7543 19.9195 19.2774C20.3706 18.8005 20.6243 18.1539 20.625 17.4795V9.99314C19.9013 10.4363 19.0671 10.636 18.2333 10.5658C17.3996 10.4955 16.6059 10.1586 15.9577 9.59977Z" fill="#4B5BA2"/>
</svg>
