<svg width="263" height="225" viewBox="0 0 263 225" fill="none" xmlns="http://www.w3.org/2000/svg">
<g clip-path="url(#clip0_46_208)">
<path d="M205.451 36.2784H187.581V188.462C187.581 190.849 187.11 193.214 186.196 195.42C185.281 197.626 183.94 199.63 182.25 201.318C180.56 203.007 178.553 204.346 176.345 205.26C174.137 206.174 171.77 206.644 169.379 206.644H32.7589V206.818C32.7588 209.206 33.2296 211.57 34.1444 213.776C35.0591 215.982 36.3998 217.986 38.09 219.675C39.7802 221.363 41.7868 222.702 43.9952 223.616C46.2035 224.53 48.5704 225 50.9607 225H205.451C207.841 225 210.208 224.53 212.416 223.616C214.625 222.702 216.631 221.363 218.322 219.675C220.012 217.986 221.352 215.982 222.267 213.776C223.182 211.57 223.653 209.206 223.653 206.818V54.4605C223.653 52.0728 223.182 49.7084 222.267 47.5025C221.352 45.2965 220.012 43.2921 218.322 41.6038C216.631 39.9154 214.625 38.5761 212.416 37.6624C210.208 36.7486 207.841 36.2783 205.451 36.2784Z" fill="#4B5BA2"/>
<path d="M183.339 20.6669H7.5551C3.38254 20.6669 0 24.0458 0 28.2138V201.842C0 206.01 3.38254 209.389 7.5551 209.389H183.339C187.511 209.389 190.894 206.01 190.894 201.842V28.2138C190.894 24.0458 187.511 20.6669 183.339 20.6669Z" fill="#4B5BA2"/>
<path d="M18.202 24.406C14.3673 24.406 10.6897 25.9277 7.97819 28.6363C5.26667 31.3448 3.74335 35.0185 3.74335 38.849V191.207C3.74335 195.037 5.26666 198.711 7.97818 201.419C10.6897 204.128 14.3673 205.65 18.202 205.65H116.801C155.654 205.65 187.15 174.187 187.15 135.377V38.849C187.15 35.0185 185.627 31.3448 182.916 28.6363C180.204 25.9277 176.527 24.406 172.692 24.406H18.202Z" fill="white"/>
<path d="M195.071 126.654C194.282 126.872 193.454 126.917 192.645 126.784C191.837 126.652 191.066 126.346 190.388 125.887C189.709 125.428 189.139 124.827 188.716 124.126C188.292 123.425 188.027 122.64 187.937 121.827L160.94 113.683L161.359 105.67L193.353 115.577C194.735 115.528 196.087 115.987 197.154 116.867C198.22 117.747 198.926 118.987 199.137 120.353C199.349 121.718 199.052 123.114 198.303 124.275C197.554 125.436 196.404 126.283 195.071 126.654Z" fill="#FFB6B6"/>
<path d="M104.179 85.3193C101.445 83.0406 105.448 71.7463 104.369 68.4726C104.304 68.2745 104.243 68.0757 104.185 67.8763C104.063 67.4539 104.09 67.0023 104.262 66.5976L114.409 61.83C117.053 62.9091 119.489 64.4389 121.608 66.3513L137.283 84.2347L152.855 98.2837L159.688 101.327L182.331 111.415L182.096 112.091L182.094 112.093L179.605 119.313L179.605 119.317L184.584 122.784L168.284 120.331L157.504 115.889L147.124 111.613C131.798 102.4 106.582 97.624 104.179 85.3193Z" fill="#9DAAE7"/>
<path d="M176.422 168.196C176.123 168.332 175.789 168.373 175.466 168.313C175.142 168.253 174.846 168.095 174.615 167.861C174.384 167.627 174.232 167.328 174.177 167.004C174.122 166.68 174.169 166.348 174.31 166.051C174.288 165.887 174.272 165.769 174.249 165.605C174.223 165.578 174.196 165.551 174.17 165.524C171.491 162.81 166.857 164.691 166.81 168.503C166.768 171.886 166.399 175.405 167.251 178.623C167.628 180.046 168.25 181.392 169.088 182.602C163.781 177.565 159.62 171.448 156.888 164.664C156.204 162.961 155.616 161.221 155.126 159.453C154.726 158.002 154.391 156.538 154.12 155.058C152.66 147.029 153.128 138.768 155.484 130.954C157.274 128.789 158.356 126.128 158.584 123.33C158.67 122.323 158.609 121.309 158.404 120.319C158.159 120.456 155.866 116.813 155.965 116.493C155.386 116.092 154.632 116.079 154.026 115.703C151.007 113.838 148.499 115.379 148.536 119.541C146.139 122.259 147.118 124.782 149.931 126.46C151.721 127.528 152.716 129.543 154.406 130.777C154.354 130.955 154.297 131.13 154.245 131.308C153.307 134.569 152.691 137.914 152.406 141.295C151.554 138.013 149.454 134.488 147.475 132.467C145.22 130.163 142.138 128.697 139.288 127.066C135.865 125.108 131.706 128.225 132.765 132.022C132.775 132.059 132.785 132.095 132.796 132.132C133.14 132.178 133.483 132.236 133.823 132.306C134.252 132.396 134.644 132.614 134.946 132.93C135.249 133.246 135.449 133.647 135.52 134.078C135.592 134.51 135.53 134.953 135.345 135.35C135.16 135.747 134.859 136.078 134.482 136.301L134.443 136.324C134.949 137.295 135.528 138.227 136.176 139.111C137.511 149.46 144.121 150.777 151.665 147.935C151.864 147.953 152.059 147.974 152.257 147.988C152.449 152.579 153.239 157.125 154.606 161.512C155.42 164.097 156.442 166.613 157.662 169.033L157.614 168.95C155.954 166.379 153.456 164.46 150.543 163.517C146.233 162.154 141.258 163.008 136.902 162.27C134.805 161.914 133.18 164.109 134.257 165.941C134.274 165.971 134.291 166 134.309 166.029C134.915 166.032 135.521 166.073 136.123 166.152C136.467 166.198 136.81 166.256 137.15 166.326C137.579 166.416 137.97 166.634 138.273 166.95C138.576 167.267 138.776 167.667 138.847 168.099C138.918 168.53 138.857 168.974 138.672 169.37C138.486 169.767 138.186 170.098 137.808 170.321L137.77 170.344C137.742 170.36 137.718 170.374 137.69 170.39C139.434 172.159 141.47 173.615 143.708 174.693C148.509 182.271 155.34 180.438 161.356 175.263L161.36 175.261C163.458 178.276 165.863 181.065 168.538 183.583L180.354 178.853C180.344 178.705 180.327 178.554 180.313 178.407C179.247 178.914 178.122 179.288 176.965 179.522C177.411 178.096 177.853 176.662 178.299 175.237C178.31 175.209 178.32 175.18 178.328 175.151C178.552 174.423 178.782 173.698 179.006 172.97L179.006 172.969C178.353 171.274 177.485 169.67 176.422 168.196L176.422 168.196Z" fill="#4B5BA2"/>
<path d="M111.476 178.583L111.34 178.414C110.951 175.908 111.476 178.583 111.476 178.583Z" fill="#2F2E41"/>
<path d="M118.397 205.614H80.5432C77.6022 198.311 75.5608 193.087 75.5608 193.087C75.5608 193.087 75.0651 198.204 74.3577 205.614H40.1354C39.8151 185.477 39.3667 164.801 39.2191 158.234L104.907 159.696L111.44 167.973C111.462 168.111 111.485 168.263 111.513 168.435C111.777 170.117 115.334 188.169 118.397 205.614Z" fill="#2F2E41"/>
<path d="M117.823 63.9844L117.817 63.9727C117.608 63.5855 117.272 63.2821 116.866 63.1135C112.71 59.8923 108.159 58.4239 103.052 59.4281C102.216 56.8997 101.436 56.8997 101.436 56.8997L90.3595 53.2453L88.7662 43.5239L61.4742 42.6011L58.9939 54.7325C58.9939 54.7325 43.7391 57.4641 43.7391 59.4394C43.7391 61.4147 46.2816 61.4147 43.7391 61.4147C41.1967 61.4147 40.5158 59.1572 38.3152 61.4147C38.1267 61.6044 37.9277 61.7834 37.7191 61.9509C37.6937 61.9735 37.6655 61.9932 37.64 62.0158C35.153 63.9699 33.1985 66.518 31.9569 69.4253C30.7152 72.3325 30.2263 75.5052 30.5353 78.6509L35.2275 125.277L40.2362 175.03L108.781 177.88L113.372 135.543L118.041 65.102C118.083 64.7161 118.007 64.3266 117.823 63.9844Z" fill="#9DAAE7"/>
<path d="M5.30202 189.02C5.69337 190.003 6.0883 190.724 6.48676 191.08L139.424 191.362C139.822 191.006 140.217 190.286 140.609 189.302C145.258 177.618 136.487 164.947 123.9 164.923L22.0179 164.73C9.44756 164.706 0.65872 177.351 5.30202 189.02Z" fill="white"/>
<path d="M139.532 191.645L139.423 191.645L6.37851 191.362L6.29836 191.29C5.884 190.92 5.47225 190.211 5.03954 189.124C3.93902 186.406 3.5331 183.457 3.85838 180.542C4.18367 177.628 5.22992 174.841 6.9028 172.431C8.57306 169.972 10.8208 167.959 13.4495 166.567C16.0783 165.175 19.0083 164.448 21.9834 164.448H22.0184L123.9 164.641C126.886 164.647 129.825 165.383 132.461 166.784C135.096 168.186 137.348 170.211 139.02 172.682C140.691 175.099 141.735 177.892 142.058 180.811C142.381 183.73 141.973 186.684 140.871 189.406C140.438 190.493 140.027 191.202 139.612 191.573L139.532 191.645ZM15.3687 190.772L128.088 190.43C136.045 190.406 141.898 182.734 139.54 175.143C139.317 174.384 138.985 173.661 138.553 172.998C136.932 170.603 134.75 168.641 132.195 167.283C129.641 165.924 126.793 165.211 123.899 165.206L22.0173 165.012H21.9834C20.6897 165.055 19.414 165.328 18.2157 165.817C11.6348 168.304 7.23415 174.557 6.86824 181.576C6.86358 181.666 6.85894 181.755 6.85431 181.845C6.79685 182.958 6.95951 184.072 7.33299 185.123C7.70646 186.173 8.28344 187.14 9.03099 187.968C9.77854 188.796 10.682 189.469 11.6898 189.948C12.6976 190.427 13.7901 190.703 14.9047 190.761C15.0592 190.768 15.2139 190.772 15.3687 190.772Z" fill="#9DAAE7"/>
<path d="M165.278 89.3018C163.822 83.1936 164.064 77.1773 166.558 71.2829C166.584 70.9182 166.754 70.5789 167.03 70.3393C167.307 70.0997 167.667 69.9795 168.032 70.0049L181.655 70.9705C182.02 70.9968 182.36 71.1667 182.6 71.4429C182.84 71.7191 182.96 72.079 182.935 72.4437L181.655 90.4626C181.628 90.8273 181.458 91.1666 181.182 91.4062C180.905 91.6458 180.545 91.7661 180.18 91.7406L166.557 90.775C166.192 90.7487 165.852 90.5788 165.612 90.3027C165.372 90.0265 165.252 89.6665 165.278 89.3018Z" fill="#4B5BA2"/>
<path d="M166.709 83.9334C165.544 80.9234 166.289 76.7836 167.532 72.3492C167.557 72.0077 167.716 71.6899 167.975 71.4655C168.234 71.2411 168.571 71.1285 168.913 71.1524L180.621 71.9822C180.963 72.0068 181.281 72.1659 181.506 72.4246C181.73 72.6832 181.843 73.0203 181.819 73.3619L180.68 89.3963C180.656 89.7378 180.496 90.0556 180.237 90.28C179.978 90.5044 179.641 90.617 179.299 90.5931L172.046 90.0791C170.523 89.9694 169.106 89.2608 168.106 88.1086C167.105 86.9565 166.603 85.455 166.709 83.9334Z" fill="white"/>
<path d="M174.815 84.719C174.457 84.6576 174.1 84.5962 173.742 84.5349C173.907 84.1464 174.002 83.732 174.023 83.3107C174.192 81.0555 174.209 78.7789 174.3 76.5191C174.297 76.4364 174.271 76.3562 174.224 76.2881C174.177 76.2201 174.111 76.167 174.035 76.1354C173.958 76.1037 173.874 76.0949 173.793 76.1098C173.712 76.1248 173.636 76.163 173.576 76.2198C172.678 76.9629 171.78 77.706 170.882 78.449C170.461 78.7969 171.064 79.3929 171.481 79.0477C172.126 78.5143 172.77 77.9809 173.415 77.4476C173.356 78.9282 173.297 80.4089 173.237 81.8896C173.209 82.6003 173.296 83.4633 173.004 84.1313C172.964 84.2214 172.912 84.3057 172.85 84.3817C172.454 84.3138 172.058 84.2458 171.662 84.1779C171.377 84.129 171.015 84.3665 171.141 84.6986C171.413 85.4207 172.217 85.6488 172.905 85.3705C172.966 85.3433 173.025 85.3119 173.081 85.2765L174.59 85.5353C175.123 85.6269 175.352 84.8112 174.815 84.719Z" fill="#9DAAE7"/>
<path d="M244.377 149.973C242.921 143.864 243.163 137.848 245.656 131.954C245.683 131.589 245.853 131.25 246.129 131.01C246.406 130.771 246.766 130.65 247.131 130.676L260.754 131.641C261.119 131.668 261.459 131.838 261.699 132.114C261.939 132.39 262.059 132.75 262.034 133.115L260.754 151.133C260.727 151.498 260.557 151.837 260.281 152.077C260.004 152.317 259.644 152.437 259.279 152.411L245.656 151.446C245.291 151.42 244.951 151.25 244.711 150.973C244.471 150.697 244.351 150.337 244.377 149.973Z" fill="#4B5BA2"/>
<path d="M245.808 144.604C244.643 141.594 245.388 137.454 246.631 133.02C246.656 132.679 246.815 132.361 247.074 132.136C247.333 131.912 247.67 131.799 248.012 131.823L259.72 132.653C260.062 132.678 260.38 132.837 260.605 133.095C260.829 133.354 260.942 133.691 260.918 134.033L259.779 150.067C259.755 150.409 259.595 150.726 259.336 150.951C259.078 151.175 258.74 151.288 258.398 151.264L251.145 150.75C249.622 150.64 248.205 149.932 247.205 148.779C246.204 147.627 245.702 146.126 245.808 144.604Z" fill="white"/>
<path d="M253.451 141.547C253.607 141.474 253.754 141.385 253.89 141.281C254.253 140.982 254.522 140.584 254.663 140.136C254.804 139.687 254.812 139.208 254.686 138.755C254.136 136.739 251.722 136.727 250.056 136.969C249.518 137.047 249.746 137.863 250.281 137.786C251.404 137.622 253.167 137.49 253.771 138.715C253.909 139.003 253.958 139.326 253.912 139.641C253.866 139.957 253.727 140.252 253.513 140.489C253.257 140.745 252.92 140.905 252.559 140.942C252.21 140.79 251.83 140.719 251.449 140.735C251.057 140.754 250.838 141.324 251.236 141.524C251.587 141.699 251.975 141.79 252.368 141.791C252.694 141.948 252.967 142.198 253.151 142.509C253.335 142.82 253.423 143.179 253.404 143.54C253.367 143.786 253.281 144.022 253.152 144.236C253.023 144.449 252.854 144.635 252.653 144.783C252.452 144.93 252.224 145.037 251.982 145.097C251.74 145.157 251.488 145.168 251.242 145.131L251.231 145.129C250.699 145.022 250.471 145.838 251.006 145.946C251.724 146.081 252.466 145.925 253.069 145.514C253.672 145.102 254.087 144.468 254.223 143.751C254.23 143.712 254.236 143.673 254.242 143.634C254.276 143.249 254.222 142.862 254.085 142.5C253.948 142.139 253.732 141.813 253.451 141.547Z" fill="#9DAAE7"/>
<path d="M229.122 53.4637C227.666 47.3554 227.909 41.3392 230.402 35.4448C230.428 35.0801 230.598 34.7408 230.875 34.5012C231.151 34.2616 231.511 34.1413 231.877 34.1668L245.5 35.1324C245.865 35.1587 246.204 35.3286 246.444 35.6047C246.684 35.8809 246.804 36.2409 246.779 36.6056L245.499 54.6245C245.473 54.9892 245.303 55.3285 245.026 55.5681C244.75 55.8077 244.389 55.9279 244.024 55.9025L230.401 54.9369C230.036 54.9106 229.696 54.7407 229.457 54.4645C229.217 54.1883 229.096 53.8284 229.122 53.4637Z" fill="#4B5BA2"/>
<path d="M230.553 48.0953C229.388 45.0853 230.133 40.9455 231.376 36.5111C231.401 36.1696 231.56 35.8518 231.819 35.6274C232.078 35.403 232.416 35.2904 232.757 35.3142L244.465 36.1441C244.807 36.1687 245.125 36.3278 245.35 36.5864C245.575 36.8451 245.687 37.1822 245.664 37.5238L244.525 53.5581C244.5 53.8997 244.341 54.2175 244.082 54.4419C243.823 54.6663 243.485 54.7789 243.143 54.755L235.891 54.2409C234.368 54.1313 232.95 53.4226 231.95 52.2705C230.949 51.1184 230.447 49.6168 230.553 48.0953Z" fill="white"/>
<path d="M237.753 40.0263C236.553 39.6102 235.218 40.5583 235.082 41.7876C234.928 43.1808 236.428 44.2807 237.727 43.9021C238.249 43.7497 238.027 42.9325 237.502 43.0857C236.55 43.3633 235.534 42.3364 236.081 41.4183C236.206 41.1967 236.395 41.0182 236.623 40.9066C236.852 40.7949 237.109 40.7554 237.36 40.7933C237.574 40.8524 237.77 40.9606 237.934 41.1093C238.098 41.258 238.225 41.4431 238.305 41.6496C238.772 42.7012 238.217 43.7688 237.481 44.5331C237.061 44.969 236.569 45.3077 236.117 45.705C235.897 45.871 235.714 46.0811 235.581 46.3219C235.447 46.5627 235.365 46.8288 235.341 47.103C235.353 47.4114 235.449 47.7107 235.619 47.9684C235.789 48.2262 236.026 48.4326 236.305 48.5654C237.027 48.9366 237.849 48.8186 238.618 48.6951C239.155 48.6087 238.927 47.7928 238.393 47.8787C237.72 47.9868 236.714 48.1505 236.288 47.4503C235.923 46.8506 236.675 46.3241 237.084 46.0051C238.113 45.2034 239.154 44.1682 239.309 42.8051C239.435 41.6884 238.867 40.4125 237.753 40.0263Z" fill="#9DAAE7"/>
<path d="M31.017 122.507L37.7291 125.527C34.5736 128.083 29.7683 131.523 25.0619 133.115L17.5843 128.021C14.7989 117.292 16.5051 106.236 19.8527 96.8871C21.7074 91.6922 24.1669 86.733 27.1807 82.1117C26.872 78.966 27.361 75.7934 28.6027 72.8862C29.8443 69.979 31.7986 67.4309 34.2854 65.4766C34.3137 65.454 34.3391 65.4343 34.3645 65.4117C36.8415 67.5588 38.8648 70.1779 40.3162 73.1157C41.7675 76.0535 42.6176 79.2509 42.8168 82.5209L42.9666 84.9929L43.266 89.8635L44.0259 102.302L35.0143 116.299L31.017 122.507Z" fill="#9DAAE7"/>
<path d="M50.3273 175.611C50.4058 175.709 50.5055 175.788 50.619 175.842C50.7325 175.897 50.8569 175.925 50.9827 175.924H96.8432C96.9686 175.924 97.0924 175.896 97.2056 175.842C97.3188 175.788 97.4185 175.709 97.4975 175.612C97.5765 175.515 97.6328 175.401 97.6623 175.279C97.6918 175.157 97.6938 175.031 97.668 174.908L96.9562 171.53C96.9266 171.392 96.8631 171.264 96.7713 171.157C96.6796 171.05 96.5625 170.968 96.4307 170.918C96.3353 170.88 96.2337 170.861 96.1313 170.861H51.6918C51.5893 170.861 51.4877 170.88 51.3923 170.918C51.2606 170.968 51.1435 171.05 51.0517 171.157C50.9599 171.264 50.8964 171.392 50.8669 171.53L50.155 174.908C50.1297 175.031 50.132 175.157 50.1618 175.279C50.1916 175.4 50.2481 175.514 50.3273 175.611Z" fill="#2F2E41"/>
<path d="M32.7702 99.995V152.838C32.7707 153.511 33.0388 154.157 33.5155 154.633C33.9922 155.109 34.6385 155.377 35.3127 155.378H113.705C114.38 155.377 115.026 155.109 115.503 154.633C115.979 154.157 116.247 153.511 116.248 152.838V99.995C116.246 99.3222 115.978 98.6774 115.501 98.2019C115.025 97.7264 114.379 97.459 113.705 97.4581H35.3127C34.6391 97.459 33.9934 97.7264 33.5168 98.2019C33.0403 98.6774 32.7718 99.3222 32.7702 99.995Z" fill="#3F3D56"/>
<path d="M64.7007 145.01V173.951H84.9981V145.01C84.9984 144.802 84.932 144.599 84.8084 144.431C84.6848 144.264 84.5107 144.14 84.3116 144.079C84.2178 144.048 84.1195 144.032 84.0207 144.034H65.681C65.4215 144.033 65.1725 144.136 64.9886 144.318C64.8048 144.501 64.7013 144.75 64.7007 145.009V145.01ZM72.6219 154.954C72.6273 154.384 72.858 153.839 73.2637 153.437C73.6695 153.035 74.2175 152.81 74.7887 152.81C75.3598 152.81 75.9079 153.035 76.3136 153.437C76.7194 153.839 76.9501 154.384 76.9554 154.954V158.312C76.9525 158.884 76.7229 159.432 76.3169 159.836C75.9109 160.239 75.3614 160.466 74.7887 160.466C74.2159 160.466 73.6665 160.239 73.2605 159.836C72.8544 159.432 72.6249 158.884 72.6219 158.312V154.954Z" fill="#2F2E41"/>
<path d="M76.5468 41.5177C86.3021 41.5177 94.2103 33.618 94.2103 23.8733C94.2103 14.1286 86.3021 6.22891 76.5468 6.22891C66.7915 6.22891 58.8832 14.1286 58.8832 23.8733C58.8832 33.618 66.7915 41.5177 76.5468 41.5177Z" fill="#FFB6B6"/>
<path d="M97.6959 20.7866C95.7915 21.3772 93.9556 21.7253 92.7172 20.1649C91.4788 18.6045 91.8024 16.8204 89.9603 16.0682C88.4729 15.459 86.7553 15.7201 85.2555 16.2858C84.9879 16.3852 84.7265 16.4971 84.4714 16.609C84.3282 16.4847 84.1851 16.3666 84.0295 16.2547C82.8587 15.423 81.4131 15.0714 79.9906 15.2725C81.0303 15.7742 81.8859 16.5897 82.4363 17.6037C81.926 17.8586 81.3777 18.0491 80.8867 18.331C74.1411 22.2051 66.6393 23.7654 67.2515 17.2991C69.2927 22.6702 67.7058 24.5849 64.7124 29.4897L64.5942 29.7757C64.8929 28.4889 62.7927 28.4279 60.9784 28.8681C59.6384 29.1932 60.5056 32.3136 62.2231 34.463C58.3833 28.6878 52.6322 19.8702 57.6054 15.4465C58.3389 14.7941 58.7991 13.8736 58.9309 11.5177C59.0091 10.1208 61.3891 9.77082 62.6462 10.3925C62.8282 8.29216 63.563 6.27729 64.7762 4.55228C65.9894 2.82727 67.6378 1.4535 69.5541 0.570334C73.4001 -1.13922 77.3115 1.49058 81.4904 2.00013C83.809 2.28285 85.5674 3.21567 85.66 6.17145C85.7216 8.1398 88.6907 8.84456 90.6324 9.19268C91.8646 9.41029 93.2524 9.27973 94.2357 10.0568C95.3745 10.9582 95.387 12.5434 95.3808 14.0665C94.2664 14.0347 93.1679 14.3355 92.2256 14.9305C93.3791 14.9595 94.494 15.3511 95.4119 16.0495C95.4296 16.0604 95.4462 16.0729 95.4617 16.0868C95.7977 18.6481 95.6608 19.189 97.6959 20.7866Z" fill="#2F2E41"/>
<path d="M110.435 106.82C117.337 104.678 124.726 106.995 131.666 105.017C133.262 104.581 134.771 103.873 136.126 102.925C137.282 102.049 138.368 101.084 139.372 100.039C141.46 97.9762 143.727 95.8105 146.864 95.8343C150.994 95.8658 154.165 98.9305 156.918 101.637C157.307 102.019 157.907 101.421 157.517 101.038C154.988 98.5514 152.255 95.928 148.654 95.1858C147.038 94.8279 145.353 94.9678 143.818 95.587C142.488 96.1911 141.272 97.0215 140.225 98.0412C139.117 99.057 138.094 100.163 136.97 101.163C135.797 102.229 134.445 103.081 132.977 103.681C129.795 104.946 126.305 105.099 122.922 105.062C118.674 105.016 114.325 104.727 110.21 106.004C109.691 106.165 109.912 106.983 110.435 106.82Z" fill="#3F3D56"/>
<path d="M158.432 95.9313L160.553 99.6674L161.58 101.475C161.762 101.796 161.95 102.115 162.127 102.439C162.237 102.638 162.475 102.997 162.247 103.186C162.047 103.283 161.823 103.318 161.602 103.286C161.228 103.287 160.854 103.279 160.48 103.275L158.376 103.254L154.027 103.21C153.918 103.213 153.814 103.26 153.737 103.339C153.661 103.418 153.618 103.523 153.618 103.633C153.618 103.743 153.661 103.848 153.737 103.927C153.814 104.006 153.918 104.052 154.027 104.056C156.552 104.082 159.078 104.135 161.602 104.133C162.043 104.175 162.484 104.055 162.841 103.794C163.016 103.62 163.132 103.396 163.173 103.152C163.213 102.908 163.176 102.658 163.066 102.437C162.817 101.895 162.531 101.37 162.209 100.867L161.285 99.2401L159.163 95.504C159.105 95.4111 159.012 95.3447 158.905 95.3187C158.799 95.2927 158.686 95.3091 158.591 95.3645C158.496 95.4199 158.426 95.51 158.397 95.6157C158.367 95.7215 158.379 95.8346 158.432 95.9313Z" fill="#3F3D56"/>
<path d="M186.475 105.086H166.974C166.867 105.086 166.761 105.066 166.663 105.025C166.564 104.985 166.474 104.925 166.398 104.85C166.322 104.775 166.262 104.686 166.221 104.587C166.18 104.489 166.158 104.383 166.158 104.277C166.158 104.17 166.178 104.064 166.219 103.966C166.26 103.867 166.319 103.777 166.395 103.702C166.47 103.626 166.559 103.566 166.658 103.525C166.757 103.484 166.862 103.463 166.969 103.463C166.971 103.463 166.972 103.463 166.974 103.463H186.475C186.582 103.462 186.687 103.483 186.786 103.523C186.885 103.564 186.975 103.623 187.051 103.698C187.127 103.773 187.187 103.863 187.228 103.961C187.269 104.06 187.29 104.165 187.291 104.272C187.291 104.379 187.27 104.484 187.23 104.583C187.189 104.682 187.13 104.771 187.054 104.847C186.979 104.922 186.889 104.982 186.791 105.024C186.692 105.065 186.587 105.086 186.48 105.086C186.478 105.086 186.476 105.086 186.475 105.086Z" fill="#9DAAE7"/>
<path d="M186.475 118.159H166.974C166.867 118.16 166.762 118.139 166.663 118.099C166.564 118.058 166.474 117.999 166.399 117.923C166.323 117.848 166.263 117.759 166.222 117.661C166.181 117.562 166.159 117.457 166.159 117.35C166.159 117.244 166.179 117.138 166.22 117.039C166.26 116.941 166.32 116.851 166.395 116.776C166.47 116.7 166.56 116.64 166.658 116.599C166.757 116.558 166.862 116.536 166.969 116.536C166.971 116.536 166.972 116.536 166.974 116.536H186.475C186.582 116.536 186.687 116.556 186.786 116.597C186.885 116.637 186.974 116.697 187.05 116.772C187.126 116.847 187.186 116.936 187.227 117.035C187.268 117.133 187.29 117.239 187.29 117.345C187.29 117.452 187.269 117.557 187.229 117.656C187.188 117.755 187.129 117.844 187.054 117.92C186.978 117.996 186.889 118.056 186.791 118.097C186.692 118.138 186.586 118.159 186.48 118.159C186.478 118.159 186.476 118.159 186.475 118.159Z" fill="#9DAAE7"/>
<path d="M205.618 111.623H166.974C166.867 111.623 166.761 111.603 166.663 111.562C166.564 111.522 166.474 111.462 166.398 111.387C166.322 111.312 166.262 111.223 166.221 111.124C166.18 111.026 166.158 110.92 166.158 110.813C166.158 110.707 166.178 110.601 166.219 110.502C166.26 110.404 166.319 110.314 166.395 110.238C166.47 110.163 166.559 110.103 166.658 110.062C166.757 110.021 166.862 110 166.969 109.999C166.971 109.999 166.972 109.999 166.974 109.999H205.618C205.725 109.999 205.831 110.019 205.93 110.06C206.029 110.1 206.118 110.16 206.194 110.235C206.27 110.31 206.33 110.399 206.371 110.498C206.413 110.596 206.434 110.702 206.434 110.809C206.435 110.915 206.414 111.021 206.373 111.12C206.333 111.218 206.273 111.308 206.198 111.384C206.122 111.459 206.033 111.519 205.934 111.56C205.836 111.601 205.73 111.622 205.623 111.623C205.622 111.623 205.62 111.623 205.618 111.623Z" fill="#9DAAE7"/>
<path d="M179.745 97.4204C184.036 91.6103 191.363 89.1052 195.781 83.4055C196.809 82.1097 197.604 80.6465 198.134 79.0804C198.546 77.6909 198.849 76.2712 199.038 74.8344C199.497 71.9373 200.039 68.851 202.581 67.0144C205.927 64.5959 210.299 65.1886 214.122 65.74C214.231 65.7529 214.341 65.7229 214.429 65.6563C214.516 65.5898 214.574 65.4919 214.591 65.3833C214.608 65.2747 214.581 65.1639 214.518 65.0743C214.454 64.9847 214.358 64.9233 214.25 64.9031C210.737 64.3965 206.98 63.9 203.638 65.4326C202.125 66.1 200.849 67.2103 199.981 68.6169C199.266 69.8911 198.779 71.2795 198.541 72.7202C198.25 74.1948 198.082 75.691 197.769 77.1615C197.456 78.7149 196.872 80.2012 196.045 81.553C194.232 84.455 191.511 86.6429 188.763 88.6154C185.313 91.0915 181.638 93.4319 179.08 96.896C178.757 97.3331 179.42 97.8606 179.745 97.4204Z" fill="#3F3D56"/>
<path d="M211.958 60.2477L215.883 62.0024L217.782 62.8515C218.12 63.0024 218.46 63.1484 218.795 63.3043C219.001 63.4001 219.406 63.5482 219.334 63.8348C219.286 64.03 219.024 64.1871 218.874 64.2974C218.574 64.5193 218.267 64.734 217.964 64.9522L216.256 66.1801L212.726 68.7177C212.64 68.7858 212.583 68.8846 212.569 68.9934C212.554 69.1022 212.582 69.2124 212.647 69.3009C212.712 69.3893 212.809 69.449 212.918 69.4675C213.026 69.4859 213.137 69.4617 213.228 69.3998C215.277 67.9266 217.344 66.475 219.376 64.9794C219.756 64.7527 220.04 64.395 220.174 63.9737C220.212 63.7298 220.172 63.4801 220.06 63.26C219.948 63.04 219.77 62.8606 219.55 62.7473C219.028 62.4575 218.486 62.2042 217.929 61.9893L216.219 61.2251L212.295 59.4704C212.192 59.4303 212.078 59.4315 211.977 59.4737C211.875 59.5159 211.794 59.5959 211.75 59.6967C211.707 59.7976 211.704 59.9114 211.743 60.0142C211.782 60.117 211.859 60.2007 211.958 60.2477Z" fill="#3F3D56"/>
<path d="M247.212 64.7328H227.711C227.604 64.7333 227.498 64.7127 227.399 64.6722C227.3 64.6318 227.211 64.5723 227.135 64.4972C227.059 64.422 226.999 64.3327 226.958 64.2343C226.916 64.1358 226.895 64.0303 226.895 63.9236C226.894 63.817 226.915 63.7113 226.956 63.6126C226.996 63.514 227.056 63.4243 227.131 63.3486C227.207 63.273 227.296 63.213 227.395 63.172C227.493 63.1309 227.599 63.1097 227.706 63.1095C227.707 63.1095 227.709 63.1095 227.711 63.1095H247.212C247.318 63.1091 247.424 63.1296 247.523 63.1701C247.622 63.2105 247.712 63.27 247.787 63.3452C247.863 63.4203 247.923 63.5097 247.965 63.6081C248.006 63.7065 248.027 63.812 248.028 63.9187C248.028 64.0254 248.007 64.1311 247.967 64.2297C247.926 64.3284 247.866 64.4181 247.791 64.4937C247.716 64.5693 247.626 64.6293 247.528 64.6704C247.429 64.7114 247.323 64.7326 247.217 64.7328C247.215 64.7328 247.213 64.7328 247.212 64.7328Z" fill="#9DAAE7"/>
<path d="M194.717 123.047C199.008 128.857 206.335 131.362 210.754 137.062C211.781 138.358 212.577 139.821 213.106 141.387C213.518 142.776 213.821 144.196 214.011 145.633C214.469 148.53 215.012 151.616 217.553 153.453C220.899 155.871 225.272 155.279 229.094 154.727C229.204 154.714 229.314 154.744 229.401 154.811C229.489 154.877 229.547 154.975 229.563 155.084C229.58 155.193 229.554 155.303 229.49 155.393C229.426 155.483 229.33 155.544 229.222 155.564C225.71 156.071 221.952 156.567 218.611 155.035C217.097 154.367 215.822 153.257 214.953 151.85C214.239 150.576 213.752 149.188 213.513 147.747C213.222 146.272 213.054 144.776 212.741 143.306C212.428 141.752 211.845 140.266 211.017 138.914C209.204 136.012 206.483 133.824 203.735 131.852C200.285 129.376 196.61 127.035 194.052 123.571C193.729 123.134 194.392 122.607 194.717 123.047Z" fill="#3F3D56"/>
<path d="M226.931 160.22L230.855 158.465L232.755 157.616C233.092 157.465 233.432 157.319 233.768 157.163C233.973 157.067 234.378 156.919 234.307 156.632C234.258 156.437 233.996 156.28 233.847 156.17C233.546 155.948 233.239 155.733 232.936 155.515L231.228 154.287L227.698 151.75C227.612 151.681 227.556 151.583 227.541 151.474C227.526 151.365 227.554 151.255 227.62 151.166C227.685 151.078 227.782 151.018 227.89 151C227.998 150.981 228.109 151.006 228.2 151.067C230.249 152.541 232.316 153.992 234.349 155.488C234.729 155.715 235.012 156.072 235.146 156.494C235.184 156.737 235.144 156.987 235.032 157.207C234.92 157.427 234.742 157.607 234.522 157.72C234 158.01 233.458 158.263 232.901 158.478L231.192 159.242L227.267 160.997C227.164 161.037 227.05 161.036 226.949 160.993C226.847 160.951 226.766 160.871 226.723 160.77C226.679 160.67 226.676 160.556 226.715 160.453C226.754 160.35 226.831 160.267 226.931 160.22Z" fill="#3F3D56"/>
<path d="M262.184 158.138H242.683C242.468 158.138 242.261 158.054 242.108 157.902C241.955 157.751 241.869 157.545 241.868 157.33C241.867 157.115 241.951 156.908 242.103 156.755C242.254 156.602 242.46 156.516 242.676 156.514C242.678 156.514 242.681 156.514 242.683 156.514H262.184C262.399 156.514 262.606 156.598 262.759 156.75C262.912 156.901 262.998 157.107 262.999 157.322C263 157.538 262.916 157.744 262.764 157.897C262.613 158.05 262.406 158.137 262.191 158.138C262.189 158.138 262.186 158.138 262.184 158.138Z" fill="#9DAAE7"/>
<path d="M39.8792 126.588C39.51 127.319 38.9863 127.96 38.3443 128.469C37.7022 128.978 36.9573 129.341 36.1609 129.534C35.3645 129.727 34.5356 129.745 33.7317 129.586C32.9278 129.427 32.1679 129.096 31.5047 128.615L11.1946 138.27L9.83344 132.584L30.5172 120.408C31.4105 119.353 32.6601 118.662 34.0292 118.466C35.3984 118.27 36.792 118.582 37.946 119.344C39.1 120.106 39.9342 121.264 40.2905 122.599C40.6468 123.934 40.5004 125.353 39.8792 126.588Z" fill="#FFB6B6"/>
<path d="M32.0527 97.2618L17.7612 126.432L23.801 123.697L28.0046 121.793L30.112 129.79C30.112 129.79 28.7165 131.144 26.5158 132.925C23.3603 135.482 18.5551 138.922 13.8487 140.513C10.1649 141.76 6.54615 141.876 3.82853 139.551C-1.32985 135.137 3.71271 117.611 8.58577 104.266C11.8486 95.3288 15.0323 88.2712 15.0323 88.2712C15.0323 78.8461 33.3433 65.2934 36.7418 63.4395C38.6825 62.3841 39.2192 63.9212 39.2192 63.9212L28.5695 79.4951L31.7533 92.3912L32.6544 96.0343L32.0527 97.2618Z" fill="#9DAAE7"/>
</g>
<defs>
<clipPath id="clip0_46_208">
<rect width="263" height="225" fill="white"/>
</clipPath>
</defs>
</svg>
