<svg width="25" height="25" viewBox="0 0 25 25" fill="none" xmlns="http://www.w3.org/2000/svg">
<path d="M12.5 10.4167C12.088 10.4167 11.6852 10.5389 11.3426 10.7678C11 10.9967 10.7329 11.3221 10.5753 11.7027C10.4176 12.0834 10.3763 12.5023 10.4567 12.9064C10.5371 13.3106 10.7355 13.6818 11.0269 13.9731C11.3182 14.2645 11.6894 14.4629 12.0936 14.5433C12.4977 14.6237 12.9166 14.5824 13.2973 14.4248C13.6779 14.2671 14.0033 14 14.2322 13.6574C14.4611 13.3148 14.5833 12.912 14.5833 12.5C14.5833 11.9475 14.3638 11.4176 13.9731 11.0269C13.5824 10.6362 13.0525 10.4167 12.5 10.4167ZM5.20833 10.4167C4.79629 10.4167 4.3935 10.5389 4.0509 10.7678C3.70829 10.9967 3.44127 11.3221 3.28359 11.7027C3.1259 12.0834 3.08465 12.5023 3.16503 12.9064C3.24542 13.3106 3.44384 13.6818 3.73519 13.9731C4.02655 14.2645 4.39777 14.4629 4.8019 14.5433C5.20602 14.6237 5.62491 14.5824 6.00559 14.4248C6.38627 14.2671 6.71164 14 6.94056 13.6574C7.16948 13.3148 7.29167 12.912 7.29167 12.5C7.29167 11.9475 7.07217 11.4176 6.68147 11.0269C6.29077 10.6362 5.76087 10.4167 5.20833 10.4167ZM19.7917 10.4167C19.3796 10.4167 18.9768 10.5389 18.6342 10.7678C18.2916 10.9967 18.0246 11.3221 17.8669 11.7027C17.7092 12.0834 17.668 12.5023 17.7484 12.9064C17.8287 13.3106 18.0272 13.6818 18.3185 13.9731C18.6099 14.2645 18.9811 14.4629 19.3852 14.5433C19.7894 14.6237 20.2082 14.5824 20.5889 14.4248C20.9696 14.2671 21.295 14 21.5239 13.6574C21.7528 13.3148 21.875 12.912 21.875 12.5C21.875 11.9475 21.6555 11.4176 21.2648 11.0269C20.8741 10.6362 20.3442 10.4167 19.7917 10.4167Z" fill="#4B5BA2"/>
</svg>
