<svg width="64" height="64" viewBox="0 0 64 64" fill="none" xmlns="http://www.w3.org/2000/svg">
<path d="M32.9375 38C36.769 38 39.875 34.894 39.875 31.0625C39.875 27.231 36.769 24.125 32.9375 24.125C29.106 24.125 26 27.231 26 31.0625C26 34.894 29.106 38 32.9375 38Z" fill="#4B5BA2"/>
<path d="M52 38C55.3137 38 58 35.3137 58 32C58 28.6863 55.3137 26 52 26C48.6863 26 46 28.6863 46 32C46 35.3137 48.6863 38 52 38Z" fill="#6C646F"/>
<path d="M12 38C15.3137 38 18 35.3137 18 32C18 28.6863 15.3137 26 12 26C8.68629 26 6 28.6863 6 32C6 35.3137 8.68629 38 12 38Z" fill="#6C646F"/>
</svg>
