<svg width="69" height="69" viewBox="0 0 69 69" fill="none" xmlns="http://www.w3.org/2000/svg">
<g id="ellipsis-horizontal">
<path id="Vector" d="M34.5 40.9688C38.0726 40.9688 40.9688 38.0726 40.9688 34.5C40.9688 30.9274 38.0726 28.0312 34.5 28.0312C30.9274 28.0312 28.0312 30.9274 28.0312 34.5C28.0312 38.0726 30.9274 40.9688 34.5 40.9688Z" fill="#6C646F"/>
<path id="Vector_2" d="M56.0625 40.9688C59.6351 40.9688 62.5312 38.0726 62.5312 34.5C62.5312 30.9274 59.6351 28.0312 56.0625 28.0312C52.4899 28.0312 49.5938 30.9274 49.5938 34.5C49.5938 38.0726 52.4899 40.9688 56.0625 40.9688Z" fill="#6C646F"/>
<path id="Vector_3" d="M14.2852 40.9688C18.602 40.9688 22.1016 37.4692 22.1016 33.1523C22.1016 28.8355 18.602 25.3359 14.2852 25.3359C9.96827 25.3359 6.46875 28.8355 6.46875 33.1523C6.46875 37.4692 9.96827 40.9688 14.2852 40.9688Z" fill="#4B5BA2"/>
</g>
</svg>
