<svg width="85" height="13" viewBox="0 0 85 13" fill="none" xmlns="http://www.w3.org/2000/svg">
<path d="M6.81855 0L4.78445 4.31092L0 4.9185L3.52387 8.18786L2.6071 12.8749L6.81855 10.5892L11.0587 12.8749L10.1419 8.18786L13.6658 4.9185L8.88131 4.31092L6.81855 0Z" fill="#E6CF00"/>
<path d="M23.8185 0L21.7845 4.31092L17 4.9185L20.5239 8.18786L19.6071 12.8749L23.8185 10.5892L28.0587 12.8749L27.1419 8.18786L30.6658 4.9185L25.8813 4.31092L23.8185 0Z" fill="#E6CF00"/>
<path d="M41.8185 0L39.7845 4.31092L35 4.9185L38.5239 8.18786L37.6071 12.8749L41.8185 10.5892L46.0587 12.8749L45.1419 8.18786L48.6658 4.9185L43.8813 4.31092L41.8185 0Z" fill="#6C646F"/>
<path d="M59.8185 0L57.7845 4.31092L53 4.9185L56.5239 8.18786L55.6071 12.8749L59.8185 10.5892L64.0587 12.8749L63.1419 8.18786L66.6658 4.9185L61.8813 4.31092L59.8185 0Z" fill="#6C646F"/>
<path d="M77.8185 0L75.7845 4.31092L71 4.9185L74.5239 8.18786L73.6071 12.8749L77.8185 10.5892L82.0587 12.8749L81.1419 8.18786L84.6658 4.9185L79.8813 4.31092L77.8185 0Z" fill="#6C646F"/>
</svg>
