<svg width="24" height="24" viewBox="0 0 24 24" fill="none" xmlns="http://www.w3.org/2000/svg">
<path d="M12.5155 22.2187L12.478 22.2127C12.4833 22.2167 12.4895 22.2194 12.496 22.2205C12.5026 22.2215 12.5093 22.2209 12.5155 22.2187ZM21.0421 8.80218C21.0314 8.74562 21.0021 8.69426 20.9589 8.65624C20.9157 8.61822 20.861 8.59573 20.8035 8.59234C20.7461 8.58895 20.6891 8.60485 20.6417 8.63752C20.5943 8.67018 20.5592 8.71774 20.5419 8.77265C20.5254 8.82478 20.4928 8.87033 20.4487 8.90275C20.4047 8.93518 20.3515 8.95281 20.2968 8.95312H19.5716C19.5247 8.95317 19.4787 8.94036 19.4385 8.91609L18.3894 8.28703C18.3493 8.26275 18.3032 8.24995 18.2563 8.25H16.5782C16.5271 8.24994 16.4772 8.26512 16.4348 8.29359L14.3652 9.67312C14.3295 9.69694 14.3002 9.7293 14.28 9.76728C14.2599 9.80525 14.2496 9.84764 14.2499 9.89062V11.8472C14.2499 11.8941 14.2626 11.9401 14.2867 11.9803C14.3108 12.0205 14.3454 12.0534 14.3868 12.0755L17.1004 13.5239C17.1412 13.5458 17.1753 13.5782 17.1994 13.6178C17.2235 13.6574 17.2365 13.7026 17.2373 13.7489L17.2499 14.85C17.2506 14.8956 17.2634 14.9402 17.2868 14.9793C17.3103 15.0183 17.3436 15.0506 17.3835 15.0727L18.4738 15.6759C18.5142 15.6984 18.5479 15.7312 18.5714 15.771C18.5949 15.8108 18.6073 15.8561 18.6074 15.9023V18.1805C18.6074 18.2303 18.6218 18.279 18.6488 18.3208C18.6758 18.3626 18.7143 18.3958 18.7597 18.4162C18.8051 18.4367 18.8554 18.4437 18.9046 18.4363C18.9539 18.4289 18.9999 18.4074 19.0373 18.3745C19.4769 17.9873 20.1074 17.422 20.1913 17.2927C20.3301 17.078 20.4602 16.8581 20.5818 16.6331C20.8335 16.1669 21.0467 15.6809 21.2193 15.18C21.8137 13.4592 21.344 10.3659 21.0421 8.80218ZM13.4249 14.1937L10.5501 12.0375C10.5176 12.0132 10.4781 12 10.4376 12H9.07351C9.05017 12 9.02706 11.9954 9.0055 11.9865C8.98394 11.9776 8.96436 11.9645 8.94788 11.948L8.30476 11.3048C8.28733 11.2874 8.26664 11.2736 8.24388 11.2642C8.22112 11.2548 8.19673 11.25 8.1721 11.25H5.67882C5.64368 11.25 5.60933 11.2396 5.58011 11.2201C5.5509 11.2005 5.52813 11.1728 5.51468 11.1403C5.50123 11.1079 5.49771 11.0721 5.50457 11.0377C5.51142 11.0032 5.52835 10.9716 5.55319 10.9467L5.94788 10.552C5.96436 10.5355 5.98395 10.5224 6.0055 10.5135C6.02706 10.5046 6.05017 10.5 6.07351 10.5H7.59085C7.67257 10.5 7.75206 10.4733 7.81721 10.424C7.88236 10.3746 7.92962 10.3054 7.95179 10.2267L8.27476 9.07828C8.28164 9.0536 8.29351 9.03059 8.30964 9.01068C8.32576 8.99076 8.3458 8.97436 8.36851 8.9625L9.65616 8.29968C9.68514 8.28471 9.70943 8.26205 9.72638 8.23418C9.74333 8.20632 9.75228 8.17433 9.75226 8.14171V7.55578C9.75231 7.51942 9.76343 7.48394 9.78413 7.45406L10.4685 6.46875C10.489 6.43914 10.5182 6.41656 10.5519 6.40406L11.5096 6.04453C11.5435 6.03183 11.5727 6.00909 11.5933 5.97936C11.6139 5.94962 11.6249 5.9143 11.6249 5.87812V5.34374C11.6249 5.31444 11.6177 5.2856 11.6039 5.25976C11.59 5.23392 11.5701 5.21189 11.5457 5.19562L10.5857 4.55718C10.5593 4.53983 10.5288 4.52974 10.4973 4.52793C10.4658 4.52612 10.4344 4.53265 10.4062 4.54687L9.09929 5.20031C9.06939 5.21507 9.03594 5.2211 9.00277 5.2177C8.9696 5.2143 8.93807 5.20161 8.91179 5.18109L8.2921 4.69125C8.27095 4.67424 8.25397 4.65262 8.24245 4.62805C8.23093 4.60348 8.22518 4.57661 8.22563 4.54947C8.22609 4.52234 8.23273 4.49567 8.24506 4.4715C8.25739 4.44732 8.27509 4.42629 8.29679 4.40999L8.80022 4.03921C8.82301 4.0225 8.84148 4.00057 8.85407 3.97527C8.86666 3.94996 8.87301 3.92201 8.8726 3.89375C8.87218 3.86549 8.86502 3.83774 8.85169 3.81281C8.83837 3.78788 8.81927 3.76651 8.79601 3.75046L8.01179 3.20343C7.98464 3.18432 7.95267 3.17322 7.91951 3.17139C7.88636 3.16957 7.85337 3.1771 7.82429 3.19312C7.54069 3.34828 6.70866 3.80765 6.41335 4.01437C5.04699 4.97256 3.94738 6.26318 3.21835 7.76437C3.13304 7.94062 3.02757 8.12015 3.01726 8.31375C3.00694 8.50734 2.85507 8.93953 2.79179 9.11437C2.78325 9.138 2.77984 9.16318 2.78178 9.18824C2.78372 9.21329 2.79096 9.23764 2.80304 9.25968L4.47601 12.3337C4.49106 12.3617 4.51342 12.385 4.54069 12.4012L6.30085 13.4578C6.32368 13.4714 6.34317 13.49 6.35785 13.5121C6.37254 13.5343 6.38205 13.5594 6.38569 13.5858L6.73819 16.1423C6.74164 16.1668 6.75012 16.1904 6.76311 16.2114C6.7761 16.2325 6.79331 16.2506 6.81366 16.2647L8.1871 17.2087C8.22689 17.2361 8.25459 17.2777 8.26444 17.325L8.99288 20.7844C8.99696 20.8047 9.00475 20.8241 9.01585 20.8416C9.08429 20.9522 9.3571 21.3572 9.68616 21.4172C9.65569 21.4256 9.62851 21.4448 9.59804 21.4537C9.67708 21.4676 9.75532 21.4858 9.83241 21.5081C9.92616 21.5334 10.0199 21.555 10.1137 21.5752C10.2604 21.6042 10.2749 21.6267 10.3452 21.4964C10.439 21.322 10.5463 21.262 10.6265 21.2405C10.6596 21.2328 10.6898 21.216 10.7138 21.192C10.7377 21.168 10.7544 21.1376 10.7619 21.1045L11.234 18.9164C11.2439 18.8705 11.2707 18.8301 11.309 18.803L13.4183 17.3077C13.4429 17.2903 13.4629 17.2673 13.4766 17.2407C13.4904 17.214 13.4976 17.1844 13.4976 17.1544V14.3437C13.4978 14.3148 13.4914 14.2863 13.4788 14.2602C13.4662 14.2342 13.4478 14.2115 13.4249 14.1937Z" fill="#4B5BA2"/>
<path d="M12.2812 2.25C12.2812 2.25 12.1101 2.25984 12.0754 2.26078C11.8213 2.26828 11.5679 2.28578 11.3151 2.31328C10.3935 2.41326 9.4909 2.64451 8.63477 3C8.74867 3.07875 8.55273 3.15094 8.55273 3.15094L8.8593 3.75H10.4999L11.6249 4.3125L12.6093 3.75L12.2812 2.25ZM16.6045 5.62781L17.3596 4.97156C17.3832 4.95105 17.4014 4.92494 17.4123 4.89562C17.4233 4.8663 17.4267 4.83471 17.4224 4.80372C17.418 4.77273 17.4059 4.74333 17.3873 4.7182C17.3686 4.69307 17.3439 4.673 17.3155 4.65984L16.4338 4.25063C16.389 4.22973 16.3378 4.22737 16.2913 4.24404C16.2448 4.26072 16.2067 4.2951 16.1854 4.33969L15.8221 5.09953C15.8023 5.14107 15.7985 5.18843 15.8114 5.2326C15.8243 5.27677 15.853 5.31466 15.892 5.33906L16.3823 5.64563C16.4163 5.66682 16.4563 5.67653 16.4963 5.67332C16.5363 5.67011 16.5742 5.65416 16.6045 5.62781ZM20.1393 6.59391L19.866 6.17203C19.8618 6.16547 19.858 6.15891 19.8543 6.15188C19.8051 6.05109 19.3977 5.22844 19.0574 4.90922C18.802 4.66781 18.7293 4.73719 18.7091 4.79062C18.6976 4.82018 18.6783 4.84608 18.6534 4.86563L17.3015 5.95828C17.2682 5.98522 17.2267 5.99994 17.1838 6H16.484C16.4594 5.99998 16.435 6.00481 16.4122 6.01422C16.3894 6.02363 16.3688 6.03744 16.3513 6.05484L15.7888 6.61734C15.7714 6.63476 15.7576 6.65544 15.7481 6.6782C15.7387 6.70096 15.7338 6.72536 15.7338 6.75C15.7338 6.77464 15.7387 6.79904 15.7481 6.8218C15.7576 6.84456 15.7714 6.86524 15.7888 6.88266L16.3513 7.44516C16.3688 7.46256 16.3894 7.47637 16.4122 7.48578C16.435 7.49519 16.4594 7.50002 16.484 7.5H20.0076C20.0329 7.50002 20.0579 7.49492 20.0812 7.485C20.1045 7.47509 20.1255 7.46056 20.1431 7.4423C20.1606 7.42403 20.1742 7.40241 20.1832 7.37873C20.1921 7.35506 20.1962 7.32982 20.1951 7.30453L20.1693 6.68812C20.1679 6.6546 20.1575 6.62206 20.1393 6.59391Z" fill="#4B5BA2"/>
<path d="M12 3.375C13.9954 3.37483 15.9292 4.06657 17.4718 5.33235C19.0144 6.59812 20.0704 8.35962 20.4599 10.3167C20.8493 12.2738 20.5481 14.3053 19.6076 16.0652C18.6671 17.8251 17.1454 19.2045 15.3019 19.9682C13.4584 20.732 11.4071 20.8329 9.49757 20.2538C7.58801 19.6747 5.93832 18.4513 4.8296 16.7923C3.72088 15.1332 3.22173 13.141 3.4172 11.1551C3.61266 9.16928 4.49065 7.31264 5.90156 5.90156C6.70049 5.09807 7.65087 4.46104 8.69767 4.02735C9.74448 3.59366 10.8669 3.37193 12 3.375ZM12 1.5C6.20156 1.5 1.5 6.20156 1.5 12C1.5 17.7984 6.20156 22.5 12 22.5C17.7984 22.5 22.5 17.7984 22.5 12C22.5 6.20156 17.7984 1.5 12 1.5Z" fill="#4B5BA2"/>
</svg>
