<svg width="322" height="164" viewBox="0 0 322 164" fill="none" xmlns="http://www.w3.org/2000/svg">
<g clip-path="url(#clip0_45_16)">
<path d="M307.707 90.6683L306.699 98.6715L304.195 118.55H253.904C254.296 114.094 254.833 107.682 255.407 100.759C255.463 100.067 255.523 99.3715 255.579 98.6715C257.017 81.2693 258.591 61.5767 258.591 61.5767L265.203 62.804L278.031 65.1808L283.258 66.1488L297.256 68.7459C304.235 70.038 309.035 80.1068 307.707 90.6683Z" fill="#F2F2F2"/>
<path d="M269.666 29.374L275.851 40.1578L263.964 48.5516L258.894 35.2963L269.666 29.374Z" fill="#FFB6B6"/>
<path d="M261.793 39.5759C270.255 39.5759 277.114 32.7409 277.114 24.3096C277.114 15.8782 270.255 9.04321 261.793 9.04321C253.331 9.04321 246.472 15.8782 246.472 24.3096C246.472 32.7409 253.331 39.5759 261.793 39.5759Z" fill="#FFB6B6"/>
<path d="M260.693 27.7225C259.476 25.8776 259.954 24.9126 258.935 24.2346C258.935 24.2346 258.525 23.9618 255.592 23.8062C254.936 19.0965 254.116 18.5254 254.116 18.5254C253.171 17.8671 251.769 18.081 250.896 18.4836C249.051 19.3351 249.265 21.1744 248.023 21.5263C246.307 22.0126 243.185 19.2716 242.877 16.1337C242.626 13.5741 244.281 11.0881 244.938 11.2196C245.589 11.35 247.147 9.36774 247.988 9.39832C248.563 9.4192 250.911 8.40243 251.542 8.48192C252.232 8.56875 254.506 9.75125 254.601 9.48108C255.259 7.6037 255.066 7.0828 255.625 6.54572C256.615 5.59401 258.235 6.25675 260.776 6.61255C266.004 7.34461 266.916 5.62687 269.596 6.79117C270.949 7.37932 272.082 8.96548 274.292 12.1138C277.382 16.5167 278.927 18.7181 278.937 21.2858C278.947 23.9044 277.675 23.7382 277.116 27.6147C276.493 31.93 277.816 33.9032 276.371 35.3051C275.255 36.3886 272.986 36.6458 271.794 35.6949C269.753 34.0668 272.424 30.1381 270.165 27.2679C268.779 25.506 265.991 24.722 264.713 25.5929C263.269 26.5777 264.065 29.4681 263.049 29.7422C262.18 29.9769 260.905 28.0439 260.693 27.7225Z" fill="#2F2E41"/>
<path d="M296.383 87.8497C295.956 95.1305 294.258 97.4291 293.664 106.028C293.534 107.915 293.456 110.107 293.456 112.72C293.456 113.386 293.459 114.03 293.459 114.66C293.459 115.999 293.434 117.265 293.277 118.55C293.159 119.575 292.954 120.608 292.616 121.696H259.618C259.614 121.689 259.614 121.681 259.61 121.674C259.417 120.837 259.295 120.038 259.202 119.272C259.172 119.027 259.146 118.787 259.124 118.55C259.094 118.272 259.068 117.998 259.042 117.728C258.942 116.651 258.842 115.633 258.604 114.66C258.284 113.316 257.705 112.05 256.516 110.828C256.029 110.329 255.543 109.94 255.067 109.6C254.975 109.537 254.885 109.474 254.792 109.411C253.477 108.511 252.233 107.863 251.156 106.028C251.137 106.002 251.122 105.972 251.107 105.946C250.922 105.624 250.439 104.78 250.089 103.655C249.722 102.485 249.499 101.016 249.9 99.5131C250.855 95.9523 254.391 95.597 257.281 91.9991C257.593 91.6105 257.902 91.181 258.195 90.7035C259.503 88.5862 259.856 86.7208 260.272 84.5036C260.338 84.1445 260.398 83.7891 260.446 83.445C260.484 83.1858 260.517 82.9305 260.543 82.6787C260.773 80.5652 260.662 78.7441 260.391 77.1155C259.507 71.7816 256.899 68.4799 258.741 63.6939C259.321 62.1912 260.142 61.0622 260.97 60.0961C262.723 58.0491 264.525 56.7203 264.213 54.0776C263.897 51.4125 261.869 51.046 261.643 48.7177C261.527 47.5408 261.914 46.3008 262.638 45.083V45.0793C264.956 41.1594 270.744 37.5504 274.421 37.6652C275.101 37.6838 275.703 37.8355 276.204 38.1279C278.021 39.1939 277.263 41.5221 280.046 44.7869C282.114 47.2113 284.455 48.1811 285.343 48.64C288.861 50.4687 291.721 55.8617 293.664 62.7575C293.678 62.8093 293.693 62.861 293.708 62.9167C294.908 67.2363 295.755 72.1407 296.175 77.1155C296.353 79.2216 296.457 81.3389 296.479 83.4338C296.498 85.1069 296.461 86.558 296.383 87.8497Z" fill="#9DAAE7"/>
<path d="M271.672 112.794L271 114.66L270.577 115.829L269.596 118.55L268.459 121.696H261.152L262.378 118.55L262.946 117.084L263.89 114.66L265.472 110.588L271.672 112.794Z" fill="#FFB6B6"/>
<path d="M293.779 62.1207C293.76 62.3615 293.734 62.6279 293.708 62.9167C293.419 65.8556 292.735 71.1154 291.736 77.1155C291.208 80.2801 290.592 83.6523 289.897 87.0021C288.404 94.231 286.546 101.349 284.447 106.028C284.072 106.872 283.686 107.634 283.292 108.308C282.991 108.822 282.675 109.329 282.345 109.829C281.275 111.469 280.075 113.023 278.831 114.474C278.782 114.537 278.727 114.597 278.671 114.66C278.47 114.896 278.262 115.13 278.054 115.363C277.036 116.506 275.996 117.572 274.99 118.55C273.764 119.742 272.582 120.797 271.524 121.696H259.659L259.61 121.674L257.902 120.919C257.902 120.919 258.388 120.349 259.202 119.272C259.369 119.053 259.547 118.812 259.741 118.55C259.978 118.228 260.235 117.872 260.509 117.487C261.081 116.68 261.731 115.733 262.43 114.659C263.782 112.583 265.324 110.029 266.88 107.071C267.059 106.727 267.241 106.379 267.423 106.028C267.426 106.017 267.434 106.005 267.437 105.994C267.746 105.395 268.051 104.777 268.355 104.147C270.937 98.7949 271.676 94.3531 271.888 92.9134C272.185 90.8776 272.597 88.031 272.486 84.8996C272.411 82.8343 272.111 80.6503 271.394 78.4813V78.4777C271.245 78.0224 271.078 77.5671 270.889 77.1155C270.55 76.3049 270.149 75.5053 269.674 74.7169C267.575 71.245 265.87 71.1006 264.514 67.3176C264.113 66.1961 263.203 63.6644 263.481 60.9919V60.9882C263.515 60.6588 263.57 60.3257 263.645 59.9924V59.9888C263.663 59.8962 263.689 59.8001 263.715 59.7075C263.927 58.8895 264.276 58.0788 264.807 57.3088C265.844 55.8136 267.259 54.9251 268.526 54.3959L268.53 54.3921C269.993 53.7852 271.256 53.6556 271.502 53.6334C276.929 53.1523 281.138 57.6976 283.437 60.1813C284.325 61.1399 285.139 61.9432 285.881 62.5982C291.665 67.7434 293.252 64.4564 293.664 62.7575C293.727 62.4947 293.76 62.2689 293.779 62.1207Z" fill="#9DAAE7"/>
<path d="M293.797 61.9284C293.797 61.9469 293.794 62.0098 293.779 62.1135C293.786 62.0578 293.79 62.0024 293.794 61.9505C293.794 61.9395 293.794 61.9321 293.797 61.9284Z" fill="#9DAAE7"/>
<path d="M264.295 140.033H65.1646C63.3145 140.033 61.8065 141.532 61.8065 143.376C61.8065 145.222 63.3145 146.721 65.1646 146.721H264.295C266.145 146.721 267.649 145.222 267.649 143.376C267.649 141.532 266.145 140.033 264.295 140.033Z" fill="#4B5BA2"/>
<path d="M220.104 157.312H109.352C107.502 157.312 105.997 158.811 105.997 160.654C105.997 162.497 107.502 164 109.352 164H220.104C221.954 164 223.462 162.497 223.462 160.654C223.462 158.811 221.954 157.312 220.104 157.312Z" fill="#4B5BA2"/>
<path d="M87.3229 30.0836L99.8727 24.8209L105.256 35.8163L92.0676 41.1799L87.3229 30.0836Z" fill="#FFB6B6"/>
<path opacity="0.1" d="M87.3229 30.0836L99.8727 24.8209L105.256 35.8163L92.0676 41.1799L87.3229 30.0836Z" fill="black"/>
<path d="M89.107 25.8936L101.488 40.1072C101.488 40.1072 92.875 67.1933 84.2624 69.607C75.6498 72.0206 59.7703 83.8205 59.7703 83.8205L39.8537 70.9479L49.5428 56.7343C49.5428 56.7343 72.9583 24.8209 79.1487 24.8209C85.339 24.8209 89.107 25.8936 89.107 25.8936Z" fill="#9DAAE7"/>
<path d="M72.3797 118.55H43.5598L41.7377 116.123L34.2985 106.214L32.5868 103.934C32.5868 103.934 26.1273 92.1341 27.4731 81.4069C28.8188 70.6797 42.8143 68.2661 42.8143 68.2661H43.3902L60.5239 83.268L59.5012 97.2295L64.9271 106.214L72.3797 118.55Z" fill="#2F2E41"/>
<path d="M49.4621 118.55H41.7377V107.152L49.4621 118.55Z" fill="#2F2E41"/>
<path d="M216.067 101.247L215.107 106.214L212.722 118.55H164.817C165.191 115.785 165.703 111.805 166.249 107.509C166.303 107.08 166.359 106.648 166.413 106.214C167.783 95.4139 169.282 83.1929 169.282 83.1929L175.58 83.9546L187.799 85.4296L192.778 86.0303L206.112 87.6421C212.76 88.4439 217.332 94.6925 216.067 101.247Z" fill="#F2F2F2"/>
<path d="M283.862 118.55H257.879C258.275 118.086 258.498 117.818 258.498 117.818L266.287 116.536L282.336 113.897C282.336 113.897 283.068 115.782 283.862 118.55Z" fill="#2F2E41"/>
<path d="M173.649 35.4476L184.948 51.3705L165.238 51.957L163.122 36.9932L173.649 35.4476Z" fill="#D17E8A"/>
<path opacity="0.1" d="M173.649 35.4476L184.948 51.3705L165.238 51.957L163.122 36.9932L173.649 35.4476Z" fill="black"/>
<path d="M117.924 68.4388C116.474 64.2713 113.141 61.6385 110.479 62.5584C107.817 63.4782 106.836 67.6018 108.287 71.7706C108.843 73.4438 109.794 74.9598 111.059 76.1919L117.426 93.7726L125.642 90.6196L118.493 73.6229C118.722 71.8743 118.527 70.0967 117.924 68.4388Z" fill="#D17E8A"/>
<path d="M194.411 60.3253L194.396 76.5528L192.881 82.5466L189.764 94.8749L187.495 106.214L185.805 114.661L185.202 117.678C184.747 117.981 184.295 118.271 183.843 118.55H144.475C142.239 117.212 140.987 116.171 140.987 116.171C140.987 116.171 141.606 115.592 142.314 114.661C143.509 113.09 144.954 110.515 144.069 108.056C143.883 107.541 143.835 106.913 143.891 106.214C144.252 101.595 149.113 93.786 149.113 93.786L148.106 82.1953L147.665 77.116L150.777 52.3494L160.921 46.4736L162.672 46.3048L179.959 45.3742L187.104 45.7845L187.43 45.873L194.411 60.3253Z" fill="#B1A7A7"/>
<path d="M195.179 118.55H186.567L186.187 114.661L186.179 114.583L188.617 114.417L194.961 113.985L195.072 116.313L195.158 118.099L195.179 118.55Z" fill="#FFB6B6"/>
<path d="M197.299 64.2487L200.917 85.4001L197.965 106.214L197.505 109.453L196.692 115.173L196.441 116.933L196.45 117.123L196.511 118.55H186.284L185.907 114.661L185.875 114.313L185.105 106.348L185.092 106.214L183.458 89.3235L186.661 77.116L186.898 76.2176V76.2149L188.291 55.313L187.212 45.814L187.201 45.7255C187.223 45.7389 187.242 45.7524 187.263 45.7658C187.32 45.8006 187.376 45.8355 187.43 45.873C193.717 49.8475 197.464 56.8202 197.299 64.2487Z" fill="#B1A7A7"/>
<path d="M154.441 56.4025L150.508 52.3492C150.508 52.3492 142.088 56.1312 141.669 58.2294C141.249 60.3276 126.384 91.1449 126.384 91.1449L119.916 73.9336L111.498 79.534C111.498 79.534 118.253 106.256 124.57 107.51C130.888 108.765 152.06 75.8825 152.06 75.8825L154.441 56.4025Z" fill="#B1A7A7"/>
<path d="M314.136 106.028H7.86051C3.52541 106.028 0 109.544 0 113.864C0 118.183 3.5254 121.696 7.86051 121.696H314.136C318.471 121.696 322 118.183 322 113.864C322 109.544 318.471 106.028 314.136 106.028Z" fill="#4B5BA2"/>
<path d="M192.619 82.1503L192.024 109.838C191.966 112.518 189.769 114.661 187.078 114.661H135.962C133.335 114.661 131.167 112.615 131.023 110.002L129.504 82.3137C129.349 79.4902 131.605 77.116 134.443 77.116H187.674C190.447 77.116 192.678 79.3876 192.619 82.1503Z" fill="#3F3D56"/>
<path d="M110.1 36.7672C116.854 36.7672 122.33 31.3113 122.33 24.5813C122.33 17.8512 116.854 12.3954 110.1 12.3954C103.346 12.3954 97.8704 17.8512 97.8704 24.5813C97.8704 31.3113 103.346 36.7672 110.1 36.7672Z" fill="#FFB6B6"/>
<path d="M89.6453 56.4661L90.991 70.9479L100.142 107.689L92.2361 110.45L78.8795 70.4115L77.0347 54.3207L89.6453 56.4661Z" fill="#FFB6B6"/>
<path d="M86.0051 82.1503L85.4097 109.838C85.3521 112.518 83.155 114.661 80.4645 114.661H29.3483C26.7214 114.661 24.5527 112.615 24.4093 110.002L22.8902 82.3137C22.7353 79.4902 24.9913 77.116 27.8292 77.116H81.0599C83.8332 77.116 86.0646 79.3876 86.0051 82.1503Z" fill="#3F3D56"/>
<path d="M101.599 114.848C106.933 114.848 111.257 112.943 111.257 110.592C111.257 108.241 106.933 106.335 101.599 106.335C96.2648 106.335 91.9406 108.241 91.9406 110.592C91.9406 112.943 96.2648 114.848 101.599 114.848Z" fill="#FFB6B6"/>
<path d="M70.6706 58.6802L76.1881 29.38C76.1881 29.38 91.5293 27.2346 92.0675 32.33C92.6058 37.4254 91.6829 62.3274 91.6829 62.3274L70.6706 58.6802Z" fill="#9DAAE7"/>
<path d="M105.163 26.4973C105.163 26.4973 112.729 23.8069 115.92 22.3594C119.111 20.9118 125.451 31.0084 125.592 25.6761C125.733 20.3437 123.542 18.1076 123.542 18.1076C123.542 18.1076 122.995 6.4424 111.201 7.90083C111.201 7.90083 113.795 2.0646 105.279 1.16214C96.763 0.259671 83.5143 20.7507 84.7008 23.8129C85.8873 26.8752 87.3097 29.4069 83.9434 32.6811C80.5772 35.9554 74.2738 54.4344 79.0697 59.4069C83.8656 64.3795 84.1803 66.5373 80.8943 69.6308C77.6084 72.7244 69.8413 79.4509 78.2393 80.6187C86.6373 81.7864 77.471 80.9142 83.7318 75.4269C89.9926 69.9395 99.1286 70.1637 95.7174 61.3596C92.3061 52.5556 98.2327 39.9395 97.4911 38.0256C96.7495 36.1117 99.1526 23.9582 99.1526 23.9582C99.1526 23.9582 104.745 23.1395 105.163 26.4973Z" fill="#2F2E41"/>
<path d="M167.607 41.2109C174.96 41.2109 180.92 35.2718 180.92 27.9456C180.92 20.6194 174.96 14.6804 167.607 14.6804C160.255 14.6804 154.294 20.6194 154.294 27.9456C154.294 35.2718 160.255 41.2109 167.607 41.2109Z" fill="#D17E8A"/>
<path d="M168.67 10.1115C168.284 10.3355 167.768 9.99651 167.645 9.56944C167.521 9.14237 167.665 8.68893 167.808 8.26783L168.526 6.14794C169.036 4.64447 169.576 3.08846 170.68 1.94412C172.345 0.216926 174.991 -0.222464 177.374 0.0958582C180.433 0.504648 183.452 2.15537 184.874 4.88506C186.297 7.61475 185.691 11.4236 183.121 13.1267C186.784 17.3106 188.061 21.9734 187.86 27.5223C187.658 33.0711 181.589 38.1779 177.632 42.0868C176.748 41.553 175.945 39.0513 176.431 38.1424C176.917 37.2336 176.22 36.1807 176.822 35.3436C177.424 34.5065 177.928 35.8394 177.319 35.0071C176.935 34.4818 178.434 33.2735 177.863 32.9591C175.102 31.4386 174.184 28.0098 172.45 25.3842C170.359 22.2172 166.78 20.0724 162.992 19.7166C160.905 19.5206 158.701 19.8756 156.991 21.0827C155.28 22.2898 154.173 24.4468 154.57 26.4974C153.543 25.4582 153.031 23.9353 153.224 22.4894C153.417 21.0435 154.31 19.7065 155.574 18.9707C154.805 16.4384 155.463 13.5254 157.247 11.5658C159.031 9.60623 166.267 9.93998 168.871 10.4557L168.67 10.1115Z" fill="#2F2E41"/>
<path d="M169.074 19.7935C172.523 20.1645 175.013 23.1415 177.116 25.8907C178.328 27.4754 179.598 29.2253 179.568 31.2174C179.537 33.2316 178.185 34.9591 177.539 36.8679C176.484 39.9878 177.513 43.6998 180.026 45.8376C177.543 46.3071 174.858 44.4519 174.429 41.9698C173.93 39.0805 176.129 36.2918 175.868 33.3714C175.639 30.7985 173.604 28.8184 171.874 26.8947C170.144 24.971 168.52 22.4182 169.315 19.96L169.074 19.7935Z" fill="#2F2E41"/>
<path d="M220.638 107.704C217.221 109.64 215.455 112.966 216.692 115.133C217.929 117.299 221.7 117.485 225.118 115.547C226.494 114.792 227.668 113.72 228.542 112.42L242.914 104.034L238.82 97.3976L225.087 106.369C223.518 106.454 221.993 106.912 220.638 107.704Z" fill="#FFB6B6"/>
<path d="M269.297 46.2094C268.867 46.0398 265.099 44.6179 261.658 46.4952C257.707 48.6518 257.096 53.5748 256.882 55.3015C256.388 59.2902 257.845 60.1842 258.152 64.2223C258.728 71.7771 260.245 63.1585 257.822 66.607C256.983 67.8006 248.417 86.298 243.693 89.9212C234.505 96.9678 228.67 101.93 228.67 101.93L235.331 109.14C235.331 109.14 245.856 106.345 255.159 100.327C264.702 94.1525 269.473 91.0655 273.165 85.0265C273.482 84.5065 281.089 71.6361 277.004 57.4045C276.072 54.1584 274.365 48.2106 269.297 46.2094Z" fill="#9DAAE7"/>
<path d="M303.691 82.1503L303.095 109.838C303.038 112.518 300.841 114.661 298.15 114.661H247.034C244.407 114.661 242.238 112.615 242.095 110.002L240.576 82.3137C240.421 79.4902 242.677 77.116 245.515 77.116H298.745C301.519 77.116 303.75 79.3876 303.691 82.1503Z" fill="#3F3D56"/>
</g>
<defs>
<clipPath id="clip0_45_16">
<rect width="322" height="164" fill="white"/>
</clipPath>
</defs>
</svg>
