<svg width="299" height="219" viewBox="0 0 299 219" fill="none" xmlns="http://www.w3.org/2000/svg">
<g clip-path="url(#clip0_46_103)">
<path d="M59.24 177.234C59.0786 176.741 57.855 176.958 57.7375 176.518C57.6205 176.079 58.7946 175.711 59.695 174.475C59.8574 174.252 60.8808 172.847 60.4883 172.256C59.7444 171.136 54.5684 173.926 53.3259 172.36C53.0533 172.017 52.9411 171.427 52.1288 170.329C51.8057 169.892 51.5984 169.682 51.3506 169.688C50.9992 169.697 50.8734 170.135 50.321 170.929C49.4925 172.119 49.1936 171.969 48.6478 172.945C48.2427 173.669 48.1947 174.131 47.9025 174.158C47.4891 174.197 47.3183 173.296 46.8131 173.261C46.2976 173.225 45.7817 174.116 45.526 174.811C45.0461 176.117 45.3433 177.115 45.4092 178.11C45.4808 179.191 45.3127 180.773 44.134 182.804L33.0164 200.455C35.4041 196.857 42.1815 187.045 44.9122 183.446C45.7004 182.407 46.5475 181.363 47.8514 181.167C49.1067 180.978 50.6341 181.597 52.7659 181.561C53.0149 181.557 53.7078 181.536 53.8764 181.17C54.0157 180.868 53.6697 180.605 53.7956 180.32C53.9644 179.939 54.7239 180.103 55.759 179.849C56.4889 179.671 56.9848 179.375 57.4112 179.122C57.5398 179.045 59.4549 177.889 59.24 177.234Z" fill="#4B5BA2"/>
<path d="M30.1211 181.355C29.8321 181.292 29.5858 181.953 29.3351 181.883C29.0852 181.814 29.2428 181.133 28.8936 180.336C28.8307 180.192 28.4339 179.287 28.0296 179.308C27.2632 179.349 27.1439 182.685 26.0143 182.841C25.7664 182.875 25.4435 182.76 24.6685 182.84C24.3602 182.872 24.1965 182.913 24.1281 183.036C24.0311 183.21 24.2106 183.398 24.4421 183.897C24.7893 184.646 24.6295 184.749 24.9524 185.297C25.192 185.704 25.406 185.861 25.3352 186.012C25.2349 186.225 24.7416 186.049 24.5787 186.286C24.4123 186.528 24.7022 187.037 24.9711 187.363C25.4759 187.974 26.0532 188.117 26.5622 188.372C27.1152 188.649 27.8461 189.187 28.5064 190.35L33.9923 200.88C32.9089 198.674 30.0316 192.528 29.0468 190.154C28.7625 189.469 28.493 188.754 28.7726 188.059C29.0417 187.391 29.7872 186.823 30.3846 185.769C30.4544 185.646 30.6442 185.302 30.5126 185.114C30.4037 184.958 30.1744 185.052 30.0706 184.908C29.9314 184.715 30.2312 184.391 30.405 183.812C30.5276 183.403 30.5253 183.076 30.5233 182.794C30.5227 182.709 30.5059 181.439 30.1211 181.355Z" fill="#4B5BA2"/>
<path d="M35.5941 183.924L35.7666 182.337L35.8723 182.238C36.3617 181.777 36.6678 181.289 36.7826 180.786C36.8008 180.707 36.815 180.626 36.8295 180.543C36.8867 180.217 36.9578 179.812 37.2725 179.391C37.4487 179.156 37.9146 178.626 38.3951 178.811C38.5248 178.859 38.6123 178.943 38.6731 179.032C38.6884 179.016 38.704 179.001 38.7208 178.984C38.9283 178.783 39.0735 178.71 39.2134 178.639C39.3209 178.584 39.4318 178.528 39.6197 178.379C39.702 178.313 39.768 178.254 39.8236 178.204C39.9922 178.054 40.2079 177.879 40.5033 177.948C40.8164 178.033 40.9238 178.331 40.995 178.528C41.1222 178.88 41.1614 179.121 41.1874 179.282C41.1967 179.34 41.2075 179.406 41.2157 179.428C41.2842 179.6 42.1446 179.644 42.4684 179.663C43.1961 179.702 43.8258 179.736 43.9772 180.233C44.0859 180.588 43.8594 180.975 43.2847 181.415C43.1057 181.552 42.9267 181.646 42.7708 181.716C42.8667 181.807 42.9431 181.93 42.9478 182.097C42.9583 182.493 42.5506 182.797 41.7359 183.002C41.5335 183.054 41.2612 183.122 40.9048 183.104C40.737 183.096 40.59 183.071 40.4647 183.047C40.446 183.118 40.4117 183.192 40.35 183.262C40.1686 183.469 39.8758 183.521 39.4783 183.405C39.0395 183.283 38.6928 183.117 38.3869 182.972C38.1196 182.845 37.8892 182.736 37.6959 182.707C37.3363 182.657 37.001 182.878 36.5997 183.172L35.5941 183.924Z" fill="#4B5BA2"/>
<path d="M38.4639 174.888L36.8802 175.124L36.7567 175.048C36.1852 174.693 35.6337 174.522 35.1168 174.538C35.0346 174.541 34.9526 174.548 34.8691 174.555C34.5379 174.582 34.1263 174.617 33.6376 174.42C33.3651 174.31 32.7322 173.995 32.7901 173.485C32.8042 173.348 32.8633 173.242 32.9342 173.161C32.9153 173.15 32.8964 173.139 32.876 173.127C32.6282 172.978 32.5199 172.857 32.4156 172.74C32.3354 172.65 32.2528 172.558 32.0598 172.415C31.9752 172.352 31.9011 172.303 31.8388 172.262C31.6504 172.138 31.4252 171.974 31.4178 171.672C31.4212 171.349 31.6829 171.17 31.8561 171.051C32.1651 170.839 32.3898 170.74 32.5388 170.674C32.5933 170.651 32.6546 170.623 32.6733 170.61C32.823 170.5 32.648 169.66 32.5839 169.343C32.4375 168.632 32.3109 168.016 32.7544 167.744C33.0717 167.549 33.5052 167.669 34.0776 168.112C34.2557 168.25 34.3928 168.398 34.5007 168.531C34.5641 168.415 34.664 168.31 34.8253 168.264C35.2072 168.153 35.6057 168.469 36.0113 169.202C36.1126 169.384 36.2478 169.629 36.3215 169.977C36.356 170.141 36.3685 170.289 36.377 170.416C36.4508 170.416 36.5313 170.43 36.6152 170.472C36.8619 170.594 36.9873 170.863 36.9749 171.276C36.9679 171.73 36.895 172.106 36.8312 172.438C36.7759 172.728 36.729 172.977 36.7493 173.171C36.7918 173.53 37.0917 173.797 37.4793 174.11L38.4639 174.888Z" fill="#4B5BA2"/>
<path d="M38.6774 170.149L38.8498 168.563L38.9556 168.463C39.4449 168.002 39.751 167.514 39.8658 167.012C39.8841 166.932 39.8982 166.851 39.9127 166.769C39.97 166.442 40.041 166.037 40.3558 165.616C40.5319 165.381 40.9978 164.851 41.4783 165.036C41.608 165.084 41.6955 165.168 41.7563 165.257C41.7716 165.242 41.7873 165.226 41.804 165.21C42.0115 165.009 42.1567 164.935 42.2966 164.864C42.4041 164.809 42.5151 164.753 42.7029 164.604C42.7853 164.538 42.8512 164.479 42.9068 164.429C43.0754 164.279 43.2911 164.104 43.5865 164.173C43.8997 164.259 44.007 164.556 44.0783 164.753C44.2055 165.105 44.2447 165.346 44.2706 165.507C44.2799 165.565 44.2907 165.631 44.2989 165.653C44.3675 165.825 45.2279 165.869 45.5516 165.888C46.2793 165.927 46.909 165.961 47.0604 166.458C47.1691 166.813 46.9426 167.2 46.3679 167.64C46.1889 167.777 46.01 167.871 45.854 167.942C45.9499 168.032 46.0264 168.155 46.031 168.322C46.0416 168.718 45.6338 169.022 44.8191 169.227C44.6167 169.279 44.3444 169.347 43.988 169.33C43.8202 169.321 43.6732 169.296 43.5479 169.272C43.5292 169.343 43.4949 169.417 43.4332 169.487C43.2519 169.694 42.959 169.747 42.5616 169.63C42.1227 169.508 41.776 169.342 41.4701 169.197C41.2029 169.07 40.9725 168.961 40.7791 168.932C40.4195 168.882 40.0842 169.103 39.6829 169.397L38.6774 170.149Z" fill="#4B5BA2"/>
<path d="M33.5421 200.545L33.2621 200.269L32.8729 200.228C32.8747 200.192 32.8722 200.107 32.8693 199.973C32.8544 199.244 32.8079 197.023 33.1183 193.61C33.335 191.228 33.6971 188.809 34.1947 186.421C34.693 184.03 35.2103 182.25 35.6257 180.82C35.9392 179.741 36.2556 178.717 36.5645 177.721C37.3889 175.058 38.1673 172.542 38.6493 169.673C38.7573 169.032 38.9813 167.699 38.5226 166.125C38.2565 165.213 37.8008 164.354 37.1679 163.573L37.7805 163.08C38.479 163.943 38.9829 164.894 39.2784 165.907C39.787 167.652 39.5429 169.105 39.4256 169.803C38.935 172.723 38.1488 175.263 37.3163 177.951C37.009 178.944 36.6936 179.963 36.3815 181.038C35.9698 182.455 35.4572 184.219 34.9653 186.58C34.4734 188.94 34.1159 191.328 33.9016 193.68C33.5953 197.05 33.6413 199.238 33.6564 199.957C33.6642 200.341 33.6658 200.421 33.5421 200.545Z" fill="#4B5BA2"/>
<path d="M35.4872 164.476C35.4557 164.469 35.424 164.461 35.3923 164.451C34.7461 164.271 34.2279 163.746 33.8514 162.892C33.6752 162.491 33.6336 162.068 33.5506 161.225C33.5376 161.095 33.4801 160.437 33.5508 159.566C33.5968 158.996 33.6582 158.767 33.8138 158.588C33.9865 158.388 34.2192 158.273 34.4651 158.216C34.4718 158.14 34.4965 158.066 34.5456 157.997C34.7479 157.707 35.0866 157.826 35.2703 157.888C35.3629 157.921 35.4782 157.963 35.608 157.985C35.8119 158.02 35.9337 157.984 36.118 157.931C36.2944 157.88 36.5136 157.817 36.8167 157.822C37.4148 157.83 37.8575 158.098 38.0035 158.186C38.7724 158.647 39.0379 159.381 39.3451 160.231C39.4061 160.402 39.6087 161.018 39.6559 161.811C39.69 162.384 39.6147 162.618 39.5284 162.786C39.3521 163.13 39.0821 163.29 38.4121 163.626C37.7122 163.978 37.361 164.154 37.073 164.244C36.403 164.454 35.9822 164.586 35.4872 164.476Z" fill="#4B5BA2"/>
<path d="M124.383 116.273C126.472 114.515 125.917 110.437 123.144 107.165C121.929 105.733 120.491 104.693 119.083 104.123L117.464 102.261L96.558 76.1595C96.558 76.1595 84.9806 50.1937 81.563 47.3885C78.1455 44.5833 74.1246 46.0438 74.1246 46.0438L70.9873 49.9115L90.5372 86.1661L110.545 106.23L113.246 109.036C113.574 110.515 114.363 112.102 115.577 113.534C118.351 116.806 122.293 118.032 124.383 116.273Z" fill="#FFB6B6"/>
<path d="M84.9199 52.2164L90.159 59.8727L97.6801 70.9646L84.166 75.623L72.2339 55.2213L84.9199 52.2164Z" fill="#9DAAE7"/>
<path d="M299 199.839H0V200.748H299V199.839Z" fill="#3F3D56"/>
<path d="M211.676 136.701H187.838V128.635C187.838 115.66 198.409 105.125 211.43 105.125H211.676V136.701Z" fill="#2F2E41"/>
<path d="M193.15 132.477L197.101 119.591L207.237 119.085L211.676 136.701L193.15 132.477Z" fill="#A0616A"/>
<path opacity="0.1" d="M193.15 132.477L197.101 119.591L207.237 119.085L211.676 136.701L193.15 132.477Z" fill="#4B5BA2"/>
<path d="M202.373 127.141C208.956 127.141 214.292 121.824 214.292 115.264C214.292 108.705 208.956 103.387 202.373 103.387C195.791 103.387 190.454 108.705 190.454 115.264C190.454 121.824 195.791 127.141 202.373 127.141Z" fill="#A0616A"/>
<path d="M177.111 181.65L173.956 184.794C173.956 184.794 157.099 173.527 150.633 177.729C144.168 181.931 143.887 190.067 151.489 194.556C159.091 199.045 178.518 209.987 178.518 209.987C178.518 209.987 204.422 214.476 221.878 200.728C239.335 186.981 242.573 187.682 239.476 180.388C236.379 173.093 229.621 174.777 229.621 174.777L216.669 182.352L211.32 181.229L177.111 181.65Z" fill="#2F2E41"/>
<path d="M177.814 185.157L191.329 191.049L186.261 203.113L166.271 198.344" fill="#2F2E41"/>
<path d="M212.359 185.157L194.145 193.574L201.184 208.163L221.456 199.466" fill="#2F2E41"/>
<path d="M194.145 130.144L176.547 137.883L182.179 168.744L177.111 181.65L204.14 185.859L218.001 181.573L216.81 175.478L218.001 152.73L222.723 139.285L210.053 130.588L194.145 130.144Z" fill="#9DAAE7"/>
<path d="M189.64 192.171L198.368 194.696L194.145 205.008L182.601 200.588L189.64 192.171Z" fill="#A0616A"/>
<path d="M201.77 192.171L191.048 197.502V205.644L203.155 204.236L201.77 192.171Z" fill="#A0616A"/>
<path d="M186.261 207.602C186.261 207.602 204.844 219.947 211.883 214.897C218.922 209.847 222.864 203.394 221.456 202.552C220.048 201.71 215.825 200.308 215.825 200.308L192.174 205.077L186.261 207.602Z" fill="#2F2E41"/>
<path d="M162.61 198.344C162.61 198.344 153.037 212.933 162.047 215.177C171.057 217.422 193.762 208.163 193.762 208.163L192.174 196.099L187.951 200.308L162.61 198.344Z" fill="#2F2E41"/>
<path d="M222.273 97.3612C219.64 94.9353 218.761 91.6149 220.311 89.945C221.86 88.2751 225.251 88.8882 227.885 91.3153C228.951 92.2705 229.771 93.466 230.278 94.8019L241.307 105.221L236.29 110.274L225.95 99.466C224.573 99.0671 223.313 98.3453 222.273 97.3612Z" fill="#A0616A"/>
<path d="M219.273 129.668L239.229 119.964L228.906 102.272L232.138 95.7297C232.138 95.7297 257.261 109.685 254.761 119.839C252.261 129.993 227.342 148.648 219.383 145.666C216.967 144.76 215.568 143.144 214.79 141.333C212.891 136.91 214.935 131.778 219.273 129.668Z" fill="#9DAAE7"/>
<path d="M179.554 124.873C180.161 123.036 181.357 121.428 181.893 119.569C182.604 117.101 184.118 122.576 184.265 120.013C184.546 115.141 192.008 102.608 196.268 100.201C200.528 97.7935 202.975 98.5193 207.315 100.78C207.315 100.78 209.422 100.914 212.045 102.204C214.668 103.494 217.029 105.561 218.049 108.293C218.857 110.458 218.768 112.836 219.038 115.13C219.791 121.523 223.387 127.602 222.615 133.993C222.374 135.986 221.614 138.048 219.978 139.221C218.342 140.393 215.699 140.266 214.622 138.568C214.255 137.989 214.099 137.302 213.784 136.693C213.47 136.084 212.901 135.516 212.213 135.535C211.18 135.563 210.654 136.945 211.061 137.891C211.469 138.838 212.426 139.41 213.325 139.918C211.184 140.878 208.528 140.579 206.656 139.167C204.784 137.756 203.772 135.29 204.117 132.976C204.603 129.715 209.37 130.39 209.932 127.141C210.341 124.776 211.776 120.819 211.385 118.451C210.994 116.083 209.116 118.95 211.095 117.582C208.918 118.627 204.261 111.474 201.983 110.673C199.704 109.871 197.771 108.136 196.735 105.961C194.318 109.452 192.192 108.504 191.326 112.657C190.461 116.81 191.898 129.62 195.462 131.939C194.036 132.909 192.262 130.921 191.592 132.507C191.213 133.406 190.967 134.389 190.338 135.135C189.136 136.561 186.917 136.647 185.148 136.048C182.954 135.305 181.079 133.673 180.045 131.607C179.011 129.541 178.83 127.066 179.554 124.873Z" fill="#2F2E41"/>
<path d="M149.065 122.089C148.421 118.574 146.078 116.055 143.833 116.464C141.588 116.873 140.291 120.054 140.935 123.571C141.174 124.979 141.747 126.31 142.607 127.452L145.526 142.314L152.495 140.801L148.878 126.311C149.278 124.939 149.342 123.491 149.065 122.089Z" fill="#A0616A"/>
<path d="M178.047 136.877L159.13 148.466L149.672 130.301L142.397 129.514C142.397 129.514 140.759 158.129 150.702 161.467C160.646 164.805 189.805 153.836 191.543 145.542C192.07 143.024 191.451 140.981 190.333 139.356C187.603 135.388 182.159 134.358 178.047 136.877Z" fill="#9DAAE7"/>
<path d="M281.247 158.514L213.489 179.855V97.6424L281.247 76.3022V158.514Z" fill="white"/>
<path d="M213.033 180.475V97.3099L281.703 75.6824V158.847L213.033 180.475ZM213.944 97.9752V179.235L280.791 158.182V76.9221L213.944 97.9752Z" fill="#3F3D56"/>
<path d="M115.316 176.752L169.656 193.866V127.934L115.316 110.82V176.752Z" fill="white"/>
<path d="M170.112 194.486L169.519 194.299L114.86 177.085V110.2L115.453 110.387L170.112 127.602V194.486ZM115.771 176.419L169.201 193.246V128.267L115.771 111.44V176.419Z" fill="#3F3D56"/>
<path d="M229.957 102.723C229.183 106.746 230.596 111.119 233.579 113.936C236.563 116.753 241.022 117.923 245.011 116.936C248.798 115.999 252.34 112.009 250.738 108.463C249.595 105.936 246.111 104.979 243.611 106.195C241.11 107.41 239.72 110.332 239.864 113.101C240.009 115.869 241.487 118.443 243.459 120.398C248.604 125.497 256.845 126.82 261.38 132.465C265.339 137.395 265.218 145.132 261.104 149.936C256.991 154.739 249.342 156.077 243.834 152.956C241.563 151.67 239.609 149.606 239.045 147.065C238.481 144.524 239.618 141.543 242.004 140.485C246.504 138.489 251.035 143.85 255.96 143.929C258.781 143.974 261.521 142.029 262.401 139.358C263.281 136.687 262.23 133.503 259.931 131.874" fill="#4B5BA2"/>
<path d="M134.601 160.246C135.472 162.794 133.667 165.901 131.016 166.416C128.365 166.932 125.519 164.73 125.364 162.043C125.209 159.356 127.783 156.844 130.476 157.054C134.815 157.393 137.376 163.31 141.719 163.033C144.691 162.844 146.568 159.815 147.665 157.057C148.928 153.881 149.851 150.571 150.415 147.201C150.885 144.39 151.101 141.48 150.423 138.711C149.744 135.943 148.064 133.314 145.515 132.021C141.644 130.056 136.346 131.973 134.497 135.89C132.649 139.807 134.43 144.983 138.225 147.09C142.971 149.724 149.507 147.827 153.819 151.12C157.275 153.76 157.869 158.627 158.184 162.954C158.385 165.714 158.584 168.517 158.017 171.226C157.45 173.935 156.006 176.586 153.61 177.986C151.796 179.047 149.374 179.257 147.628 178.088C145.882 176.919 145.227 174.215 146.585 172.614C147.696 171.304 149.719 171.095 151.346 171.657C152.972 172.22 154.296 173.4 155.573 174.551" fill="#4B5BA2"/>
<path d="M90.2391 26.1594L86.4447 40.5743L71.9786 37.7386C71.9786 37.7386 77.6702 27.3409 76.2473 22.6147L90.2391 26.1594Z" fill="#FFB6B6"/>
<path d="M74.9683 213.797L83.6796 213.796L87.8237 180.314L74.9665 180.314L74.9683 213.797Z" fill="#FFB6B6"/>
<path d="M104.815 213.6C105.086 214.055 105.229 215.524 105.229 216.054C105.229 217.681 103.905 219 102.272 219H75.2941C74.1801 219 73.277 218.1 73.277 216.99V215.871C73.277 215.871 71.9425 212.507 74.6901 208.361C74.6901 208.361 78.1051 211.607 83.208 206.523L84.7128 203.806L95.6053 211.744L101.643 212.485C102.964 212.647 104.135 212.46 104.815 213.6Z" fill="#2F2E41"/>
<path d="M99.1567 116.898L87.1527 198.294H72.0922L74.0948 151.831L75.1488 127.401L72.0922 115.772C72.0922 115.772 70.6986 113.187 69.5245 110.054C68.2012 106.518 67.156 102.279 68.7077 100.269C69.2786 99.5275 70.763 98.979 72.7802 98.5706C74.0128 98.3197 75.4475 98.1242 76.9962 97.9725C85.9026 97.0944 98.5711 97.6428 98.5711 97.6428L98.8932 108.233L99.0718 114.147L99.1567 116.898Z" fill="#2F2E41"/>
<path d="M59.6229 209.816L68.2417 211.078L77.2292 178.552L64.5087 176.69L59.6229 209.816Z" fill="#FFB6B6"/>
<path d="M89.1804 213.947C89.3823 214.437 89.3095 215.911 89.2322 216.435C88.9947 218.045 87.4925 219.158 85.8769 218.921L59.1857 215.011C58.0836 214.85 57.3215 213.829 57.4835 212.73L57.6469 211.623C57.6469 211.623 56.8175 208.101 60.1412 204.398C60.1412 204.398 63.046 208.105 68.8368 203.813L70.7221 201.344L80.3401 210.777L86.2054 212.384C87.4886 212.736 88.6747 212.721 89.1804 213.947Z" fill="#2F2E41"/>
<path d="M99.3456 103.323L97.6992 117.452L88.7203 147.226L73.9395 196.244L59.0408 194.062L72.4122 124.366L71.0882 112.415C71.0882 112.415 70.657 111.227 70.1628 109.488C69.1817 106.047 67.9513 100.444 69.305 97.5862C69.4878 97.1977 69.7172 96.8606 70.0011 96.5876C70.5335 96.0731 71.6157 95.7607 73.0655 95.5949C79.1256 94.9125 91.6058 96.8645 97.1592 97.8227L99.3456 103.323Z" fill="#2F2E41"/>
<path d="M87.8676 36.3207L104.231 56.8797L101.294 78.3141L98.7764 100.124L69.1328 95.6346C69.1328 95.6346 75.5358 80.2744 76.2473 79.5655C76.9587 78.8565 78.7457 80.6074 77.4965 78.3141C76.2473 76.0208 74.8244 76.0208 76.0101 74.8393C77.1959 73.6577 66.7613 58.2976 66.7613 50.0267C66.7613 41.7558 71.7414 35.1392 71.7414 35.1392L87.8676 36.3207Z" fill="#9DAAE7"/>
<path d="M84.0498 28.8816C90.1377 28.8816 95.0729 23.9639 95.0729 17.8975C95.0729 11.8311 90.1377 6.91336 84.0498 6.91336C77.9619 6.91336 73.0266 11.8311 73.0266 17.8975C73.0266 23.9639 77.9619 28.8816 84.0498 28.8816Z" fill="#FFB6B6"/>
<path d="M83.5346 38.8988C83.5346 38.8988 85.1841 25.8934 85.4761 22.1114C85.768 18.3293 91.1256 12.4245 91.1256 12.4245L94.921 15.4792C94.921 15.4792 98.1326 15.4792 95.9429 10.8244C93.7532 6.16959 89.6658 5.44227 89.6658 5.44227C89.6658 5.44227 89.2278 -0.667176 81.6369 0.0601435C74.046 0.787458 70.6885 6.89691 70.6885 6.89691C70.6885 6.89691 70.2505 -0.812632 65.4332 4.86042C60.6159 10.5335 57.8423 12.8609 62.9515 14.7519C68.0608 16.6429 71.8563 15.1883 71.8563 15.1883C71.8563 15.1883 66.893 16.2065 67.7689 19.6976C68.6447 23.1888 56.2365 39.0442 61.9297 40.7898C67.6229 42.5353 80.3231 46.7538 81.7829 43.99C83.2427 41.2262 83.5346 38.8988 83.5346 38.8988Z" fill="#2F2E41"/>
<path d="M128.974 117.363C131.078 115.621 130.558 111.539 127.812 108.244C126.61 106.802 125.18 105.75 123.777 105.169L122.173 103.293L101.488 77.0178C101.488 77.0178 90.1293 50.9562 86.7354 48.1225C83.3416 45.2889 79.3085 46.7158 79.3085 46.7158L76.1389 50.5571L95.3831 86.9738L115.222 107.204L117.899 110.033C118.215 111.515 118.99 113.108 120.192 114.55C122.938 117.845 126.87 119.104 128.974 117.363Z" fill="#FFB6B6"/>
<path d="M74.938 44.6958C74.938 44.6958 80.0019 70.8813 85.7643 74.7415L97.2471 65.8194C97.2471 65.8194 98.2519 65.7764 96.3817 63.6713C94.5115 61.5663 94.9903 57.0459 94.9903 57.0459C94.9903 57.0459 95.8319 58.1308 94.0007 56.6247C92.1696 55.1185 93.8742 44.7603 93.8742 44.7603L74.938 44.6958Z" fill="#9DAAE7"/>
</g>
<defs>
<clipPath id="clip0_46_103">
<rect width="299" height="219" fill="white"/>
</clipPath>
</defs>
</svg>
